<svg xmlns="http://www.w3.org/2000/svg" xmlns:xlink="http://www.w3.org/1999/xlink" width="500" zoomAndPan="magnify" viewBox="0 0 375 374.999991" height="500" preserveAspectRatio="xMidYMid meet" version="1.0"><defs><g/><clipPath id="97bb2dda63"><path d="M 156 76 L 343.480469 76 L 343.480469 257.878906 L 156 257.878906 Z M 156 76 " clip-rule="nonzero"/></clipPath><clipPath id="5ef8d0be32"><path d="M 120.648438 39.960938 L 131.488281 39.960938 L 131.488281 50.796875 L 120.648438 50.796875 Z M 120.648438 39.960938 " clip-rule="nonzero"/></clipPath><clipPath id="3bb99edbdf"><path d="M 126.070312 39.960938 C 123.074219 39.960938 120.648438 42.386719 120.648438 45.378906 C 120.648438 48.371094 123.074219 50.796875 126.070312 50.796875 C 129.0625 50.796875 131.488281 48.371094 131.488281 45.378906 C 131.488281 42.386719 129.0625 39.960938 126.070312 39.960938 Z M 126.070312 39.960938 " clip-rule="nonzero"/></clipPath><clipPath id="e7466b2f1d"><path d="M 0.648438 0.960938 L 11.488281 0.960938 L 11.488281 11.796875 L 0.648438 11.796875 Z M 0.648438 0.960938 " clip-rule="nonzero"/></clipPath><clipPath id="52058a51be"><path d="M 6.070312 0.960938 C 3.074219 0.960938 0.648438 3.386719 0.648438 6.378906 C 0.648438 9.371094 3.074219 11.796875 6.070312 11.796875 C 9.0625 11.796875 11.488281 9.371094 11.488281 6.378906 C 11.488281 3.386719 9.0625 0.960938 6.070312 0.960938 Z M 6.070312 0.960938 " clip-rule="nonzero"/></clipPath><clipPath id="00c9c82f74"><rect x="0" width="12" y="0" height="12"/></clipPath><clipPath id="e44e3766f3"><path d="M 2 0.359375 L 17 0.359375 L 17 17 L 2 17 Z M 2 0.359375 " clip-rule="nonzero"/></clipPath><clipPath id="8cbf9152d5"><path d="M 102 0.359375 L 117 0.359375 L 117 17 L 102 17 Z M 102 0.359375 " clip-rule="nonzero"/></clipPath><clipPath id="c484426951"><path d="M 138 0.359375 L 140 0.359375 L 140 17 L 138 17 Z M 138 0.359375 " clip-rule="nonzero"/></clipPath><clipPath id="0c322b3dd3"><path d="M 204 0.359375 L 206 0.359375 L 206 17 L 204 17 Z M 204 0.359375 " clip-rule="nonzero"/></clipPath><clipPath id="8f65032fb7"><path d="M 230 0.359375 L 243 0.359375 L 243 17 L 230 17 Z M 230 0.359375 " clip-rule="nonzero"/></clipPath><clipPath id="73c3d65af9"><path d="M 329 0.359375 L 339 0.359375 L 339 17 L 329 17 Z M 329 0.359375 " clip-rule="nonzero"/></clipPath><clipPath id="f3a347c96d"><path d="M 218 76 L 343.480469 76 L 343.480469 114 L 218 114 Z M 218 76 " clip-rule="nonzero"/></clipPath><clipPath id="620ddcd902"><path d="M 0.761719 76 L 194 76 L 194 257.878906 L 0.761719 257.878906 Z M 0.761719 76 " clip-rule="nonzero"/></clipPath><clipPath id="9aabede6f0"><rect x="0" width="344" y="0" height="258"/></clipPath></defs><g transform="matrix(1, 0, 0, 1, 17, 51)"><g clip-path="url(#9aabede6f0)"><g clip-path="url(#97bb2dda63)"><path stroke-linecap="round" transform="matrix(0.766356, -0.766356, 0.766356, 0.766356, 172.604972, 255.566025)" fill="none" stroke-linejoin="miter" d="M 1.498645 1.499143 L 210.630663 1.499143 " stroke="#38b6ff" stroke-width="3" stroke-opacity="1" stroke-miterlimit="4"/></g><g fill="#38b6ff" fill-opacity="1"><g transform="translate(120.649869, 104.611781)"><g/></g></g><g fill="#38b6ff" fill-opacity="1"><g transform="translate(130.03441, 104.611781)"><g/></g></g><g fill="#38b6ff" fill-opacity="1"><g transform="translate(139.429931, 104.611781)"><g><path d="M 5.78125 0 C 4.5 0 3.859375 -0.628906 3.859375 -1.890625 L 3.859375 -21.203125 C 3.859375 -22.234375 4.398438 -22.75 5.484375 -22.75 C 6.492188 -22.75 7.039062 -22.257812 7.125 -21.28125 L 7.328125 -18.609375 L 7.453125 -18.609375 C 8.265625 -20.085938 9.21875 -21.234375 10.3125 -22.046875 C 11.457031 -22.910156 12.65625 -23.34375 13.90625 -23.34375 C 14.1875 -23.34375 14.582031 -23.316406 15.09375 -23.265625 C 15.957031 -22.984375 16.273438 -22.367188 16.046875 -21.421875 C 15.765625 -20.128906 15.023438 -19.609375 13.828125 -19.859375 C 13.691406 -19.859375 13.550781 -19.859375 13.40625 -19.859375 C 12.34375 -19.859375 11.335938 -19.46875 10.390625 -18.6875 C 9.273438 -17.789062 8.367188 -16.4375 7.671875 -14.625 L 7.671875 -1.890625 C 7.671875 -0.628906 7.039062 0 5.78125 0 Z M 5.78125 0 "/></g></g></g><g fill="#38b6ff" fill-opacity="1"><g transform="translate(155.685304, 104.611781)"><g><path d="M 10.484375 0.546875 C 5.867188 0.546875 3.5625 -2.414062 3.5625 -8.34375 L 3.5625 -20.875 C 3.5625 -22.125 4.203125 -22.75 5.484375 -22.75 C 6.742188 -22.75 7.375 -22.125 7.375 -20.875 L 7.375 -8.796875 C 7.375 -6.671875 7.707031 -5.132812 8.375 -4.1875 C 9.050781 -3.238281 10.144531 -2.765625 11.65625 -2.765625 C 12.800781 -2.765625 13.847656 -3.070312 14.796875 -3.6875 C 15.691406 -4.25 16.695312 -5.226562 17.8125 -6.625 L 17.8125 -20.875 C 17.8125 -22.125 18.453125 -22.75 19.734375 -22.75 C 20.992188 -22.75 21.625 -22.125 21.625 -20.875 L 21.625 -1.59375 C 21.625 -0.53125 21.078125 0 19.984375 0 C 18.953125 0 18.394531 -0.503906 18.3125 -1.515625 L 18.140625 -3.5625 L 18.015625 -3.5625 C 16.867188 -2.21875 15.738281 -1.226562 14.625 -0.59375 C 13.34375 0.164062 11.960938 0.546875 10.484375 0.546875 Z M 10.484375 0.546875 "/></g></g></g><g fill="#38b6ff" fill-opacity="1"><g transform="translate(181.11574, 104.611781)"><g><path d="M 9.8125 0.546875 C 7.207031 0.546875 4.757812 -0.222656 2.46875 -1.765625 C 1.71875 -2.316406 1.632812 -3 2.21875 -3.8125 C 2.863281 -4.675781 3.617188 -4.789062 4.484375 -4.15625 C 6.210938 -3.007812 8.03125 -2.4375 9.9375 -2.4375 C 11.382812 -2.4375 12.515625 -2.785156 13.328125 -3.484375 C 14.054688 -4.117188 14.421875 -4.953125 14.421875 -5.984375 C 14.421875 -7.023438 13.875 -7.921875 12.78125 -8.671875 C 12.113281 -9.117188 10.925781 -9.664062 9.21875 -10.3125 C 7.125 -11.09375 5.601562 -11.859375 4.65625 -12.609375 C 3.175781 -13.753906 2.4375 -15.179688 2.4375 -16.890625 C 2.4375 -18.765625 3.117188 -20.285156 4.484375 -21.453125 C 5.929688 -22.710938 7.859375 -23.34375 10.265625 -23.34375 C 12.304688 -23.34375 14.273438 -22.753906 16.171875 -21.578125 C 16.953125 -21.046875 17.035156 -20.375 16.421875 -19.5625 C 15.804688 -18.726562 15.054688 -18.601562 14.171875 -19.1875 C 12.941406 -19.945312 11.640625 -20.328125 10.265625 -20.328125 C 8.921875 -20.328125 7.875 -20.003906 7.125 -19.359375 C 6.457031 -18.773438 6.125 -18.015625 6.125 -17.078125 C 6.125 -16.140625 6.582031 -15.363281 7.5 -14.75 C 8.082031 -14.363281 9.160156 -13.875 10.734375 -13.28125 C 10.921875 -13.195312 11.070312 -13.140625 11.1875 -13.109375 L 11.234375 -13.078125 C 13.460938 -12.234375 15.023438 -11.460938 15.921875 -10.765625 C 17.378906 -9.617188 18.109375 -8.097656 18.109375 -6.203125 C 18.109375 -4.273438 17.394531 -2.695312 15.96875 -1.46875 C 14.488281 -0.125 12.4375 0.546875 9.8125 0.546875 Z M 9.8125 0.546875 "/></g></g></g><g fill="#38b6ff" fill-opacity="1"><g transform="translate(200.722734, 104.611781)"><g><path d="M 9.8125 0.546875 C 7.207031 0.546875 4.757812 -0.222656 2.46875 -1.765625 C 1.71875 -2.316406 1.632812 -3 2.21875 -3.8125 C 2.863281 -4.675781 3.617188 -4.789062 4.484375 -4.15625 C 6.210938 -3.007812 8.03125 -2.4375 9.9375 -2.4375 C 11.382812 -2.4375 12.515625 -2.785156 13.328125 -3.484375 C 14.054688 -4.117188 14.421875 -4.953125 14.421875 -5.984375 C 14.421875 -7.023438 13.875 -7.921875 12.78125 -8.671875 C 12.113281 -9.117188 10.925781 -9.664062 9.21875 -10.3125 C 7.125 -11.09375 5.601562 -11.859375 4.65625 -12.609375 C 3.175781 -13.753906 2.4375 -15.179688 2.4375 -16.890625 C 2.4375 -18.765625 3.117188 -20.285156 4.484375 -21.453125 C 5.929688 -22.710938 7.859375 -23.34375 10.265625 -23.34375 C 12.304688 -23.34375 14.273438 -22.753906 16.171875 -21.578125 C 16.953125 -21.046875 17.035156 -20.375 16.421875 -19.5625 C 15.804688 -18.726562 15.054688 -18.601562 14.171875 -19.1875 C 12.941406 -19.945312 11.640625 -20.328125 10.265625 -20.328125 C 8.921875 -20.328125 7.875 -20.003906 7.125 -19.359375 C 6.457031 -18.773438 6.125 -18.015625 6.125 -17.078125 C 6.125 -16.140625 6.582031 -15.363281 7.5 -14.75 C 8.082031 -14.363281 9.160156 -13.875 10.734375 -13.28125 C 10.921875 -13.195312 11.070312 -13.140625 11.1875 -13.109375 L 11.234375 -13.078125 C 13.460938 -12.234375 15.023438 -11.460938 15.921875 -10.765625 C 17.378906 -9.617188 18.109375 -8.097656 18.109375 -6.203125 C 18.109375 -4.273438 17.394531 -2.695312 15.96875 -1.46875 C 14.488281 -0.125 12.4375 0.546875 9.8125 0.546875 Z M 9.8125 0.546875 "/></g></g></g><path stroke-linecap="round" transform="matrix(1.083791, 0, 0, 1.083791, 71.879275, 60.010202)" fill="none" stroke-linejoin="miter" d="M 1.499026 1.500766 L 181.498741 1.500766 " stroke="#38b6ff" stroke-width="3" stroke-opacity="1" stroke-miterlimit="4"/><g clip-path="url(#5ef8d0be32)"><g clip-path="url(#3bb99edbdf)"><g transform="matrix(1, 0, 0, 1, 120, 39)"><g clip-path="url(#00c9c82f74)"><g clip-path="url(#e7466b2f1d)"><g clip-path="url(#52058a51be)"><path fill="#7ed957" d="M 0.648438 0.960938 L 11.488281 0.960938 L 11.488281 11.796875 L 0.648438 11.796875 Z M 0.648438 0.960938 " fill-opacity="1" fill-rule="nonzero"/></g></g></g></g></g></g><g clip-path="url(#e44e3766f3)"><g fill="#000000" fill-opacity="1"><g transform="translate(1.894366, 15.657519)"><g><path d="M 14.90625 -2.546875 C 14.90625 -2.460938 14.820312 -2.300781 14.65625 -2.0625 C 14.5 -1.820312 14.25 -1.546875 13.90625 -1.234375 C 13.570312 -0.929688 13.144531 -0.632812 12.625 -0.34375 C 12.101562 -0.0625 11.488281 0.171875 10.78125 0.359375 C 10.082031 0.546875 9.28125 0.640625 8.375 0.640625 C 7.320312 0.640625 6.347656 0.441406 5.453125 0.046875 C 4.566406 -0.347656 3.796875 -0.898438 3.140625 -1.609375 C 2.484375 -2.328125 1.972656 -3.164062 1.609375 -4.125 C 1.253906 -5.09375 1.078125 -6.144531 1.078125 -7.28125 C 1.078125 -8.363281 1.257812 -9.367188 1.625 -10.296875 C 1.988281 -11.234375 2.5 -12.050781 3.15625 -12.75 C 3.820312 -13.445312 4.597656 -13.992188 5.484375 -14.390625 C 6.367188 -14.796875 7.332031 -15 8.375 -15 C 9.289062 -15 10.117188 -14.882812 10.859375 -14.65625 C 11.597656 -14.4375 12.222656 -14.171875 12.734375 -13.859375 C 13.253906 -13.546875 13.65625 -13.242188 13.9375 -12.953125 C 14.226562 -12.671875 14.375 -12.472656 14.375 -12.359375 C 14.375 -12.222656 14.304688 -12.097656 14.171875 -11.984375 C 14.046875 -11.867188 13.914062 -11.8125 13.78125 -11.8125 C 13.664062 -11.8125 13.570312 -11.847656 13.5 -11.921875 C 12.695312 -12.828125 11.875 -13.421875 11.03125 -13.703125 C 10.195312 -13.992188 9.3125 -14.140625 8.375 -14.140625 C 7.519531 -14.140625 6.710938 -13.960938 5.953125 -13.609375 C 5.191406 -13.253906 4.515625 -12.757812 3.921875 -12.125 C 3.335938 -11.5 2.875 -10.773438 2.53125 -9.953125 C 2.195312 -9.128906 2.03125 -8.238281 2.03125 -7.28125 C 2.03125 -6.289062 2.195312 -5.367188 2.53125 -4.515625 C 2.863281 -3.671875 3.320312 -2.925781 3.90625 -2.28125 C 4.5 -1.644531 5.175781 -1.148438 5.9375 -0.796875 C 6.695312 -0.453125 7.507812 -0.28125 8.375 -0.28125 C 9.53125 -0.28125 10.578125 -0.484375 11.515625 -0.890625 C 12.453125 -1.296875 13.269531 -1.976562 13.96875 -2.9375 C 14.0625 -3.0625 14.179688 -3.125 14.328125 -3.125 C 14.460938 -3.125 14.59375 -3.066406 14.71875 -2.953125 C 14.84375 -2.835938 14.90625 -2.703125 14.90625 -2.546875 Z M 14.90625 -2.546875 "/></g></g></g></g><g fill="#000000" fill-opacity="1"><g transform="translate(21.051016, 15.657519)"><g><path d="M 1.59375 0.265625 L 1.59375 -10.8125 C 1.59375 -10.976562 1.640625 -11.101562 1.734375 -11.1875 C 1.828125 -11.269531 1.929688 -11.3125 2.046875 -11.3125 C 2.160156 -11.3125 2.265625 -11.265625 2.359375 -11.171875 C 2.460938 -11.078125 2.515625 -10.941406 2.515625 -10.765625 L 2.515625 -9.421875 C 2.554688 -9.523438 2.660156 -9.675781 2.828125 -9.875 C 2.992188 -10.070312 3.234375 -10.273438 3.546875 -10.484375 C 3.867188 -10.703125 4.273438 -10.890625 4.765625 -11.046875 C 5.265625 -11.203125 5.851562 -11.28125 6.53125 -11.28125 C 6.863281 -11.28125 7.226562 -11.242188 7.625 -11.171875 C 8.019531 -11.109375 8.40625 -11.015625 8.78125 -10.890625 C 9.164062 -10.773438 9.472656 -10.632812 9.703125 -10.46875 C 9.941406 -10.300781 10.0625 -10.109375 10.0625 -9.890625 C 10.0625 -9.742188 10.003906 -9.617188 9.890625 -9.515625 C 9.785156 -9.421875 9.660156 -9.375 9.515625 -9.375 C 9.367188 -9.375 9.226562 -9.445312 9.09375 -9.59375 C 8.925781 -9.789062 8.609375 -9.984375 8.140625 -10.171875 C 7.679688 -10.367188 7.109375 -10.46875 6.421875 -10.46875 C 5.421875 -10.46875 4.632812 -10.257812 4.0625 -9.84375 C 3.5 -9.4375 3.097656 -8.921875 2.859375 -8.296875 C 2.617188 -7.671875 2.5 -7.019531 2.5 -6.34375 L 2.5 0.265625 C 2.5 0.421875 2.453125 0.539062 2.359375 0.625 C 2.265625 0.707031 2.160156 0.75 2.046875 0.75 C 1.929688 0.75 1.828125 0.707031 1.734375 0.625 C 1.640625 0.539062 1.59375 0.421875 1.59375 0.265625 Z M 1.59375 0.265625 "/></g></g></g><g fill="#000000" fill-opacity="1"><g transform="translate(35.043173, 15.657519)"><g><path d="M 6.78125 -0.25 C 7.726562 -0.25 8.566406 -0.46875 9.296875 -0.90625 C 10.035156 -1.34375 10.609375 -1.953125 11.015625 -2.734375 C 11.429688 -3.515625 11.640625 -4.410156 11.640625 -5.421875 C 11.640625 -6.453125 11.429688 -7.359375 11.015625 -8.140625 C 10.609375 -8.921875 10.039062 -9.535156 9.3125 -9.984375 C 8.582031 -10.441406 7.738281 -10.671875 6.78125 -10.671875 C 5.832031 -10.671875 4.992188 -10.441406 4.265625 -9.984375 C 3.535156 -9.535156 2.960938 -8.921875 2.546875 -8.140625 C 2.140625 -7.359375 1.9375 -6.453125 1.9375 -5.421875 C 1.9375 -4.410156 2.140625 -3.515625 2.546875 -2.734375 C 2.960938 -1.953125 3.535156 -1.34375 4.265625 -0.90625 C 5.003906 -0.46875 5.84375 -0.25 6.78125 -0.25 Z M 6.78125 0.578125 C 5.59375 0.578125 4.566406 0.328125 3.703125 -0.171875 C 2.847656 -0.679688 2.1875 -1.390625 1.71875 -2.296875 C 1.257812 -3.203125 1.03125 -4.242188 1.03125 -5.421875 C 1.03125 -6.617188 1.257812 -7.671875 1.71875 -8.578125 C 2.1875 -9.484375 2.847656 -10.191406 3.703125 -10.703125 C 4.566406 -11.210938 5.59375 -11.46875 6.78125 -11.46875 C 7.96875 -11.46875 8.992188 -11.210938 9.859375 -10.703125 C 10.722656 -10.191406 11.382812 -9.484375 11.84375 -8.578125 C 12.3125 -7.671875 12.546875 -6.617188 12.546875 -5.421875 C 12.546875 -4.242188 12.3125 -3.203125 11.84375 -2.296875 C 11.382812 -1.390625 10.722656 -0.679688 9.859375 -0.171875 C 9.003906 0.328125 7.976562 0.578125 6.78125 0.578125 Z M 6.78125 0.578125 "/></g></g></g><g fill="#000000" fill-opacity="1"><g transform="translate(52.190371, 15.657519)"><g><path d="M 10.6875 -2.71875 C 10.6875 -2.332031 10.609375 -1.9375 10.453125 -1.53125 C 10.296875 -1.132812 10.03125 -0.765625 9.65625 -0.421875 C 9.289062 -0.078125 8.796875 0.195312 8.171875 0.40625 C 7.554688 0.613281 6.785156 0.71875 5.859375 0.71875 C 4.929688 0.71875 4.128906 0.609375 3.453125 0.390625 C 2.773438 0.171875 2.21875 -0.09375 1.78125 -0.40625 C 1.351562 -0.71875 1.03125 -1.019531 0.8125 -1.3125 C 0.601562 -1.613281 0.5 -1.835938 0.5 -1.984375 C 0.5 -2.128906 0.554688 -2.238281 0.671875 -2.3125 C 0.796875 -2.382812 0.9375 -2.421875 1.09375 -2.421875 C 1.351562 -2.421875 1.539062 -2.300781 1.65625 -2.0625 C 1.8125 -1.675781 2.101562 -1.34375 2.53125 -1.0625 C 2.96875 -0.789062 3.472656 -0.585938 4.046875 -0.453125 C 4.628906 -0.316406 5.222656 -0.25 5.828125 -0.25 C 6.503906 -0.25 7.128906 -0.332031 7.703125 -0.5 C 8.273438 -0.675781 8.738281 -0.945312 9.09375 -1.3125 C 9.457031 -1.6875 9.640625 -2.15625 9.640625 -2.71875 C 9.640625 -3.019531 9.578125 -3.304688 9.453125 -3.578125 C 9.335938 -3.859375 9.160156 -4.09375 8.921875 -4.28125 C 8.566406 -4.550781 8.15625 -4.753906 7.6875 -4.890625 C 7.21875 -5.035156 6.71875 -5.140625 6.1875 -5.203125 C 5.664062 -5.273438 5.132812 -5.347656 4.59375 -5.421875 C 4.0625 -5.503906 3.550781 -5.613281 3.0625 -5.75 C 2.570312 -5.894531 2.132812 -6.117188 1.75 -6.421875 C 1.46875 -6.640625 1.25 -6.910156 1.09375 -7.234375 C 0.9375 -7.566406 0.859375 -7.914062 0.859375 -8.28125 C 0.859375 -8.957031 1.082031 -9.53125 1.53125 -10 C 1.976562 -10.476562 2.5625 -10.835938 3.28125 -11.078125 C 4 -11.328125 4.765625 -11.453125 5.578125 -11.453125 C 6.378906 -11.453125 7.0625 -11.359375 7.625 -11.171875 C 8.195312 -10.984375 8.664062 -10.757812 9.03125 -10.5 C 9.394531 -10.25 9.660156 -10.003906 9.828125 -9.765625 C 9.992188 -9.523438 10.078125 -9.347656 10.078125 -9.234375 C 10.078125 -9.109375 10.015625 -9 9.890625 -8.90625 C 9.765625 -8.8125 9.628906 -8.765625 9.484375 -8.765625 C 9.234375 -8.765625 9.046875 -8.878906 8.921875 -9.109375 C 8.660156 -9.609375 8.203125 -9.976562 7.546875 -10.21875 C 6.898438 -10.457031 6.21875 -10.578125 5.5 -10.578125 C 4.601562 -10.578125 3.882812 -10.445312 3.34375 -10.1875 C 2.800781 -9.925781 2.414062 -9.617188 2.1875 -9.265625 C 1.957031 -8.910156 1.84375 -8.582031 1.84375 -8.28125 C 1.84375 -7.800781 2.085938 -7.414062 2.578125 -7.125 C 3.109375 -6.789062 3.679688 -6.566406 4.296875 -6.453125 C 4.921875 -6.347656 5.550781 -6.257812 6.1875 -6.1875 C 6.820312 -6.113281 7.4375 -5.992188 8.03125 -5.828125 C 8.632812 -5.671875 9.1875 -5.390625 9.6875 -4.984375 C 10 -4.722656 10.242188 -4.394531 10.421875 -4 C 10.597656 -3.601562 10.6875 -3.175781 10.6875 -2.71875 Z M 10.6875 -2.71875 "/></g></g></g><g fill="#000000" fill-opacity="1"><g transform="translate(67.177877, 15.657519)"><g><path d="M 10.6875 -2.71875 C 10.6875 -2.332031 10.609375 -1.9375 10.453125 -1.53125 C 10.296875 -1.132812 10.03125 -0.765625 9.65625 -0.421875 C 9.289062 -0.078125 8.796875 0.195312 8.171875 0.40625 C 7.554688 0.613281 6.785156 0.71875 5.859375 0.71875 C 4.929688 0.71875 4.128906 0.609375 3.453125 0.390625 C 2.773438 0.171875 2.21875 -0.09375 1.78125 -0.40625 C 1.351562 -0.71875 1.03125 -1.019531 0.8125 -1.3125 C 0.601562 -1.613281 0.5 -1.835938 0.5 -1.984375 C 0.5 -2.128906 0.554688 -2.238281 0.671875 -2.3125 C 0.796875 -2.382812 0.9375 -2.421875 1.09375 -2.421875 C 1.351562 -2.421875 1.539062 -2.300781 1.65625 -2.0625 C 1.8125 -1.675781 2.101562 -1.34375 2.53125 -1.0625 C 2.96875 -0.789062 3.472656 -0.585938 4.046875 -0.453125 C 4.628906 -0.316406 5.222656 -0.25 5.828125 -0.25 C 6.503906 -0.25 7.128906 -0.332031 7.703125 -0.5 C 8.273438 -0.675781 8.738281 -0.945312 9.09375 -1.3125 C 9.457031 -1.6875 9.640625 -2.15625 9.640625 -2.71875 C 9.640625 -3.019531 9.578125 -3.304688 9.453125 -3.578125 C 9.335938 -3.859375 9.160156 -4.09375 8.921875 -4.28125 C 8.566406 -4.550781 8.15625 -4.753906 7.6875 -4.890625 C 7.21875 -5.035156 6.71875 -5.140625 6.1875 -5.203125 C 5.664062 -5.273438 5.132812 -5.347656 4.59375 -5.421875 C 4.0625 -5.503906 3.550781 -5.613281 3.0625 -5.75 C 2.570312 -5.894531 2.132812 -6.117188 1.75 -6.421875 C 1.46875 -6.640625 1.25 -6.910156 1.09375 -7.234375 C 0.9375 -7.566406 0.859375 -7.914062 0.859375 -8.28125 C 0.859375 -8.957031 1.082031 -9.53125 1.53125 -10 C 1.976562 -10.476562 2.5625 -10.835938 3.28125 -11.078125 C 4 -11.328125 4.765625 -11.453125 5.578125 -11.453125 C 6.378906 -11.453125 7.0625 -11.359375 7.625 -11.171875 C 8.195312 -10.984375 8.664062 -10.757812 9.03125 -10.5 C 9.394531 -10.25 9.660156 -10.003906 9.828125 -9.765625 C 9.992188 -9.523438 10.078125 -9.347656 10.078125 -9.234375 C 10.078125 -9.109375 10.015625 -9 9.890625 -8.90625 C 9.765625 -8.8125 9.628906 -8.765625 9.484375 -8.765625 C 9.234375 -8.765625 9.046875 -8.878906 8.921875 -9.109375 C 8.660156 -9.609375 8.203125 -9.976562 7.546875 -10.21875 C 6.898438 -10.457031 6.21875 -10.578125 5.5 -10.578125 C 4.601562 -10.578125 3.882812 -10.445312 3.34375 -10.1875 C 2.800781 -9.925781 2.414062 -9.617188 2.1875 -9.265625 C 1.957031 -8.910156 1.84375 -8.582031 1.84375 -8.28125 C 1.84375 -7.800781 2.085938 -7.414062 2.578125 -7.125 C 3.109375 -6.789062 3.679688 -6.566406 4.296875 -6.453125 C 4.921875 -6.347656 5.550781 -6.257812 6.1875 -6.1875 C 6.820312 -6.113281 7.4375 -5.992188 8.03125 -5.828125 C 8.632812 -5.671875 9.1875 -5.390625 9.6875 -4.984375 C 10 -4.722656 10.242188 -4.394531 10.421875 -4 C 10.597656 -3.601562 10.6875 -3.175781 10.6875 -2.71875 Z M 10.6875 -2.71875 "/></g></g></g><g fill="#000000" fill-opacity="1"><g transform="translate(82.179555, 15.657519)"><g/></g></g><g fill="#000000" fill-opacity="1"><g transform="translate(91.720869, 15.657519)"><g/></g></g><g clip-path="url(#8cbf9152d5)"><g fill="#000000" fill-opacity="1"><g transform="translate(101.264433, 15.657519)"><g><path d="M 14.90625 -2.546875 C 14.90625 -2.460938 14.820312 -2.300781 14.65625 -2.0625 C 14.5 -1.820312 14.25 -1.546875 13.90625 -1.234375 C 13.570312 -0.929688 13.144531 -0.632812 12.625 -0.34375 C 12.101562 -0.0625 11.488281 0.171875 10.78125 0.359375 C 10.082031 0.546875 9.28125 0.640625 8.375 0.640625 C 7.320312 0.640625 6.347656 0.441406 5.453125 0.046875 C 4.566406 -0.347656 3.796875 -0.898438 3.140625 -1.609375 C 2.484375 -2.328125 1.972656 -3.164062 1.609375 -4.125 C 1.253906 -5.09375 1.078125 -6.144531 1.078125 -7.28125 C 1.078125 -8.363281 1.257812 -9.367188 1.625 -10.296875 C 1.988281 -11.234375 2.5 -12.050781 3.15625 -12.75 C 3.820312 -13.445312 4.597656 -13.992188 5.484375 -14.390625 C 6.367188 -14.796875 7.332031 -15 8.375 -15 C 9.289062 -15 10.117188 -14.882812 10.859375 -14.65625 C 11.597656 -14.4375 12.222656 -14.171875 12.734375 -13.859375 C 13.253906 -13.546875 13.65625 -13.242188 13.9375 -12.953125 C 14.226562 -12.671875 14.375 -12.472656 14.375 -12.359375 C 14.375 -12.222656 14.304688 -12.097656 14.171875 -11.984375 C 14.046875 -11.867188 13.914062 -11.8125 13.78125 -11.8125 C 13.664062 -11.8125 13.570312 -11.847656 13.5 -11.921875 C 12.695312 -12.828125 11.875 -13.421875 11.03125 -13.703125 C 10.195312 -13.992188 9.3125 -14.140625 8.375 -14.140625 C 7.519531 -14.140625 6.710938 -13.960938 5.953125 -13.609375 C 5.191406 -13.253906 4.515625 -12.757812 3.921875 -12.125 C 3.335938 -11.5 2.875 -10.773438 2.53125 -9.953125 C 2.195312 -9.128906 2.03125 -8.238281 2.03125 -7.28125 C 2.03125 -6.289062 2.195312 -5.367188 2.53125 -4.515625 C 2.863281 -3.671875 3.320312 -2.925781 3.90625 -2.28125 C 4.5 -1.644531 5.175781 -1.148438 5.9375 -0.796875 C 6.695312 -0.453125 7.507812 -0.28125 8.375 -0.28125 C 9.53125 -0.28125 10.578125 -0.484375 11.515625 -0.890625 C 12.453125 -1.296875 13.269531 -1.976562 13.96875 -2.9375 C 14.0625 -3.0625 14.179688 -3.125 14.328125 -3.125 C 14.460938 -3.125 14.59375 -3.066406 14.71875 -2.953125 C 14.84375 -2.835938 14.90625 -2.703125 14.90625 -2.546875 Z M 14.90625 -2.546875 "/></g></g></g></g><g fill="#000000" fill-opacity="1"><g transform="translate(120.421083, 15.657519)"><g><path d="M 10.265625 0.03125 L 10.265625 -1.65625 C 10.003906 -1.03125 9.523438 -0.503906 8.828125 -0.078125 C 8.128906 0.335938 7.226562 0.546875 6.125 0.546875 C 4.601562 0.546875 3.441406 0.113281 2.640625 -0.75 C 1.847656 -1.625 1.453125 -2.78125 1.453125 -4.21875 L 1.453125 -10.84375 C 1.453125 -11 1.5 -11.117188 1.59375 -11.203125 C 1.6875 -11.285156 1.785156 -11.328125 1.890625 -11.328125 C 2.003906 -11.328125 2.109375 -11.285156 2.203125 -11.203125 C 2.296875 -11.117188 2.34375 -11 2.34375 -10.84375 L 2.34375 -4.25 C 2.34375 -2.882812 2.679688 -1.878906 3.359375 -1.234375 C 4.046875 -0.597656 4.941406 -0.28125 6.046875 -0.28125 C 6.867188 -0.28125 7.601562 -0.453125 8.25 -0.796875 C 8.894531 -1.148438 9.398438 -1.644531 9.765625 -2.28125 C 10.128906 -2.914062 10.3125 -3.644531 10.3125 -4.46875 L 10.3125 -10.84375 C 10.3125 -11 10.359375 -11.113281 10.453125 -11.1875 C 10.546875 -11.269531 10.65625 -11.3125 10.78125 -11.3125 C 10.882812 -11.3125 10.984375 -11.269531 11.078125 -11.1875 C 11.171875 -11.113281 11.21875 -11.003906 11.21875 -10.859375 L 11.21875 0.109375 C 11.21875 0.273438 11.171875 0.394531 11.078125 0.46875 C 10.984375 0.539062 10.878906 0.578125 10.765625 0.578125 C 10.640625 0.578125 10.523438 0.53125 10.421875 0.4375 C 10.316406 0.351562 10.265625 0.21875 10.265625 0.03125 Z M 10.265625 0.03125 "/></g></g></g><g clip-path="url(#c484426951)"><g fill="#000000" fill-opacity="1"><g transform="translate(136.648062, 15.657519)"><g><path d="M 1.5 0.125 L 1.5 -14.703125 C 1.5 -14.859375 1.546875 -14.972656 1.640625 -15.046875 C 1.742188 -15.117188 1.859375 -15.15625 1.984375 -15.15625 C 2.109375 -15.15625 2.222656 -15.117188 2.328125 -15.046875 C 2.429688 -14.972656 2.484375 -14.859375 2.484375 -14.703125 L 2.484375 0.125 C 2.484375 0.269531 2.429688 0.378906 2.328125 0.453125 C 2.222656 0.523438 2.109375 0.5625 1.984375 0.5625 C 1.859375 0.5625 1.742188 0.523438 1.640625 0.453125 C 1.546875 0.378906 1.5 0.269531 1.5 0.125 Z M 1.5 0.125 "/></g></g></g></g><g fill="#000000" fill-opacity="1"><g transform="translate(144.198695, 15.657519)"><g><path d="M 2.8125 -1.921875 L 2.8125 -10.390625 L 0.625 -10.390625 C 0.5 -10.390625 0.40625 -10.429688 0.34375 -10.515625 C 0.289062 -10.609375 0.265625 -10.703125 0.265625 -10.796875 C 0.265625 -10.898438 0.289062 -10.988281 0.34375 -11.0625 C 0.40625 -11.144531 0.5 -11.1875 0.625 -11.1875 L 2.8125 -11.1875 L 2.8125 -14.21875 C 2.8125 -14.351562 2.859375 -14.457031 2.953125 -14.53125 C 3.046875 -14.613281 3.148438 -14.65625 3.265625 -14.65625 C 3.367188 -14.65625 3.46875 -14.613281 3.5625 -14.53125 C 3.65625 -14.457031 3.703125 -14.351562 3.703125 -14.21875 L 3.703125 -11.1875 L 7.5625 -11.1875 C 7.707031 -11.1875 7.8125 -11.144531 7.875 -11.0625 C 7.945312 -10.988281 7.984375 -10.898438 7.984375 -10.796875 C 7.984375 -10.703125 7.945312 -10.609375 7.875 -10.515625 C 7.8125 -10.429688 7.707031 -10.390625 7.5625 -10.390625 L 3.703125 -10.390625 L 3.703125 -1.921875 C 3.703125 -1.296875 3.867188 -0.863281 4.203125 -0.625 C 4.546875 -0.394531 4.9375 -0.28125 5.375 -0.28125 C 5.757812 -0.28125 6.144531 -0.335938 6.53125 -0.453125 C 6.925781 -0.578125 7.238281 -0.703125 7.46875 -0.828125 C 7.570312 -0.878906 7.675781 -0.90625 7.78125 -0.90625 C 7.882812 -0.90625 7.972656 -0.867188 8.046875 -0.796875 C 8.117188 -0.722656 8.15625 -0.640625 8.15625 -0.546875 C 8.15625 -0.390625 8.054688 -0.242188 7.859375 -0.109375 C 7.660156 0.015625 7.414062 0.125 7.125 0.21875 C 6.832031 0.320312 6.523438 0.398438 6.203125 0.453125 C 5.890625 0.515625 5.609375 0.546875 5.359375 0.546875 C 4.898438 0.546875 4.476562 0.46875 4.09375 0.3125 C 3.71875 0.15625 3.410156 -0.101562 3.171875 -0.46875 C 2.929688 -0.832031 2.8125 -1.316406 2.8125 -1.921875 Z M 2.8125 -1.921875 "/></g></g></g><g fill="#000000" fill-opacity="1"><g transform="translate(156.218956, 15.657519)"><g><path d="M 10.265625 0.03125 L 10.265625 -1.65625 C 10.003906 -1.03125 9.523438 -0.503906 8.828125 -0.078125 C 8.128906 0.335938 7.226562 0.546875 6.125 0.546875 C 4.601562 0.546875 3.441406 0.113281 2.640625 -0.75 C 1.847656 -1.625 1.453125 -2.78125 1.453125 -4.21875 L 1.453125 -10.84375 C 1.453125 -11 1.5 -11.117188 1.59375 -11.203125 C 1.6875 -11.285156 1.785156 -11.328125 1.890625 -11.328125 C 2.003906 -11.328125 2.109375 -11.285156 2.203125 -11.203125 C 2.296875 -11.117188 2.34375 -11 2.34375 -10.84375 L 2.34375 -4.25 C 2.34375 -2.882812 2.679688 -1.878906 3.359375 -1.234375 C 4.046875 -0.597656 4.941406 -0.28125 6.046875 -0.28125 C 6.867188 -0.28125 7.601562 -0.453125 8.25 -0.796875 C 8.894531 -1.148438 9.398438 -1.644531 9.765625 -2.28125 C 10.128906 -2.914062 10.3125 -3.644531 10.3125 -4.46875 L 10.3125 -10.84375 C 10.3125 -11 10.359375 -11.113281 10.453125 -11.1875 C 10.546875 -11.269531 10.65625 -11.3125 10.78125 -11.3125 C 10.882812 -11.3125 10.984375 -11.269531 11.078125 -11.1875 C 11.171875 -11.113281 11.21875 -11.003906 11.21875 -10.859375 L 11.21875 0.109375 C 11.21875 0.273438 11.171875 0.394531 11.078125 0.46875 C 10.984375 0.539062 10.878906 0.578125 10.765625 0.578125 C 10.640625 0.578125 10.523438 0.53125 10.421875 0.4375 C 10.316406 0.351562 10.265625 0.21875 10.265625 0.03125 Z M 10.265625 0.03125 "/></g></g></g><g fill="#000000" fill-opacity="1"><g transform="translate(172.445935, 15.657519)"><g><path d="M 1.59375 0.265625 L 1.59375 -10.8125 C 1.59375 -10.976562 1.640625 -11.101562 1.734375 -11.1875 C 1.828125 -11.269531 1.929688 -11.3125 2.046875 -11.3125 C 2.160156 -11.3125 2.265625 -11.265625 2.359375 -11.171875 C 2.460938 -11.078125 2.515625 -10.941406 2.515625 -10.765625 L 2.515625 -9.421875 C 2.554688 -9.523438 2.660156 -9.675781 2.828125 -9.875 C 2.992188 -10.070312 3.234375 -10.273438 3.546875 -10.484375 C 3.867188 -10.703125 4.273438 -10.890625 4.765625 -11.046875 C 5.265625 -11.203125 5.851562 -11.28125 6.53125 -11.28125 C 6.863281 -11.28125 7.226562 -11.242188 7.625 -11.171875 C 8.019531 -11.109375 8.40625 -11.015625 8.78125 -10.890625 C 9.164062 -10.773438 9.472656 -10.632812 9.703125 -10.46875 C 9.941406 -10.300781 10.0625 -10.109375 10.0625 -9.890625 C 10.0625 -9.742188 10.003906 -9.617188 9.890625 -9.515625 C 9.785156 -9.421875 9.660156 -9.375 9.515625 -9.375 C 9.367188 -9.375 9.226562 -9.445312 9.09375 -9.59375 C 8.925781 -9.789062 8.609375 -9.984375 8.140625 -10.171875 C 7.679688 -10.367188 7.109375 -10.46875 6.421875 -10.46875 C 5.421875 -10.46875 4.632812 -10.257812 4.0625 -9.84375 C 3.5 -9.4375 3.097656 -8.921875 2.859375 -8.296875 C 2.617188 -7.671875 2.5 -7.019531 2.5 -6.34375 L 2.5 0.265625 C 2.5 0.421875 2.453125 0.539062 2.359375 0.625 C 2.265625 0.707031 2.160156 0.75 2.046875 0.75 C 1.929688 0.75 1.828125 0.707031 1.734375 0.625 C 1.640625 0.539062 1.59375 0.421875 1.59375 0.265625 Z M 1.59375 0.265625 "/></g></g></g><g fill="#000000" fill-opacity="1"><g transform="translate(186.438091, 15.657519)"><g><path d="M 10.21875 -1.734375 L 10.21875 -1.84375 C 10 -1.3125 9.632812 -0.859375 9.125 -0.484375 C 8.613281 -0.109375 8.03125 0.171875 7.375 0.359375 C 6.71875 0.554688 6.054688 0.65625 5.390625 0.65625 C 4.359375 0.65625 3.507812 0.476562 2.84375 0.125 C 2.175781 -0.226562 1.675781 -0.679688 1.34375 -1.234375 C 1.019531 -1.796875 0.859375 -2.375 0.859375 -2.96875 C 0.859375 -3.40625 0.945312 -3.828125 1.125 -4.234375 C 1.300781 -4.640625 1.550781 -5 1.875 -5.3125 C 2.289062 -5.695312 2.789062 -5.976562 3.375 -6.15625 C 3.96875 -6.34375 4.59375 -6.472656 5.25 -6.546875 C 5.914062 -6.628906 6.546875 -6.695312 7.140625 -6.75 C 8.066406 -6.84375 8.789062 -6.96875 9.3125 -7.125 C 9.84375 -7.289062 10.109375 -7.617188 10.109375 -8.109375 C 10.109375 -8.609375 9.988281 -9.019531 9.75 -9.34375 C 9.507812 -9.664062 9.195312 -9.914062 8.8125 -10.09375 C 8.4375 -10.28125 8.035156 -10.410156 7.609375 -10.484375 C 7.191406 -10.554688 6.800781 -10.59375 6.4375 -10.59375 C 4.988281 -10.59375 3.753906 -10.148438 2.734375 -9.265625 C 2.628906 -9.160156 2.492188 -9.109375 2.328125 -9.109375 C 2.179688 -9.109375 2.046875 -9.15625 1.921875 -9.25 C 1.796875 -9.351562 1.734375 -9.472656 1.734375 -9.609375 C 1.734375 -9.765625 1.921875 -9.984375 2.296875 -10.265625 C 2.679688 -10.554688 3.226562 -10.820312 3.9375 -11.0625 C 4.644531 -11.3125 5.492188 -11.4375 6.484375 -11.4375 C 8.109375 -11.4375 9.28125 -11.066406 10 -10.328125 C 10.726562 -9.597656 11.09375 -8.550781 11.09375 -7.1875 L 11.09375 -7.078125 C 11.09375 -6.722656 11.085938 -6.351562 11.078125 -5.96875 C 11.078125 -5.582031 11.070312 -5.191406 11.0625 -4.796875 L 11.0625 -3.234375 C 11.0625 -2.617188 11.085938 -2.039062 11.140625 -1.5 C 11.203125 -0.957031 11.320312 -0.523438 11.5 -0.203125 C 11.5625 -0.078125 11.59375 0.0195312 11.59375 0.09375 C 11.59375 0.21875 11.539062 0.320312 11.4375 0.40625 C 11.332031 0.488281 11.210938 0.53125 11.078125 0.53125 C 10.898438 0.53125 10.753906 0.441406 10.640625 0.265625 C 10.535156 0.0976562 10.453125 -0.109375 10.390625 -0.359375 C 10.328125 -0.609375 10.28125 -0.859375 10.25 -1.109375 C 10.226562 -1.359375 10.21875 -1.566406 10.21875 -1.734375 Z M 10.234375 -4.25 L 10.234375 -4.296875 C 10.234375 -4.628906 10.242188 -5.003906 10.265625 -5.421875 C 10.296875 -5.835938 10.3125 -6.28125 10.3125 -6.75 C 10 -6.382812 9.5625 -6.140625 9 -6.015625 C 8.445312 -5.898438 7.835938 -5.816406 7.171875 -5.765625 C 6.585938 -5.722656 6.003906 -5.675781 5.421875 -5.625 C 4.835938 -5.570312 4.296875 -5.472656 3.796875 -5.328125 C 3.304688 -5.191406 2.890625 -4.96875 2.546875 -4.65625 C 2.296875 -4.414062 2.109375 -4.15625 1.984375 -3.875 C 1.859375 -3.59375 1.796875 -3.3125 1.796875 -3.03125 C 1.796875 -2.570312 1.9375 -2.132812 2.21875 -1.71875 C 2.5 -1.300781 2.910156 -0.957031 3.453125 -0.6875 C 4.003906 -0.414062 4.671875 -0.28125 5.453125 -0.28125 C 6.378906 -0.28125 7.203125 -0.453125 7.921875 -0.796875 C 8.640625 -1.148438 9.203125 -1.628906 9.609375 -2.234375 C 10.023438 -2.835938 10.234375 -3.507812 10.234375 -4.25 Z M 10.234375 -4.25 "/></g></g></g><g clip-path="url(#0c322b3dd3)"><g fill="#000000" fill-opacity="1"><g transform="translate(202.552384, 15.657519)"><g><path d="M 1.5 0.125 L 1.5 -14.703125 C 1.5 -14.859375 1.546875 -14.972656 1.640625 -15.046875 C 1.742188 -15.117188 1.859375 -15.15625 1.984375 -15.15625 C 2.109375 -15.15625 2.222656 -15.117188 2.328125 -15.046875 C 2.429688 -14.972656 2.484375 -14.859375 2.484375 -14.703125 L 2.484375 0.125 C 2.484375 0.269531 2.429688 0.378906 2.328125 0.453125 C 2.222656 0.523438 2.109375 0.5625 1.984375 0.5625 C 1.859375 0.5625 1.742188 0.523438 1.640625 0.453125 C 1.546875 0.378906 1.5 0.269531 1.5 0.125 Z M 1.5 0.125 "/></g></g></g></g><g fill="#000000" fill-opacity="1"><g transform="translate(210.117675, 15.657519)"><g/></g></g><g fill="#000000" fill-opacity="1"><g transform="translate(219.658989, 15.657519)"><g/></g></g><g clip-path="url(#8f65032fb7)"><g fill="#000000" fill-opacity="1"><g transform="translate(229.202547, 15.657519)"><g><path d="M 12.796875 -0.59375 L 12.796875 -14.296875 C 12.796875 -14.472656 12.84375 -14.597656 12.9375 -14.671875 C 13.039062 -14.753906 13.15625 -14.796875 13.28125 -14.796875 C 13.40625 -14.796875 13.515625 -14.753906 13.609375 -14.671875 C 13.710938 -14.597656 13.765625 -14.472656 13.765625 -14.296875 L 13.765625 -0.390625 C 13.765625 -0.046875 13.65625 0.195312 13.4375 0.34375 C 13.226562 0.488281 13 0.5625 12.75 0.5625 C 12.332031 0.5625 12.054688 0.460938 11.921875 0.265625 L 5.28125 -10.25 C 5.21875 -10.351562 5.097656 -10.539062 4.921875 -10.8125 C 4.742188 -11.082031 4.546875 -11.382812 4.328125 -11.71875 C 4.109375 -12.050781 3.898438 -12.375 3.703125 -12.6875 C 3.503906 -13.007812 3.332031 -13.269531 3.1875 -13.46875 C 3.050781 -13.675781 2.984375 -13.78125 2.984375 -13.78125 C 2.960938 -13.8125 2.929688 -13.828125 2.890625 -13.828125 C 2.765625 -13.828125 2.703125 -13.78125 2.703125 -13.6875 L 2.703125 0.078125 C 2.703125 0.234375 2.648438 0.351562 2.546875 0.4375 C 2.453125 0.53125 2.34375 0.578125 2.21875 0.578125 C 2.09375 0.578125 1.976562 0.53125 1.875 0.4375 C 1.78125 0.351562 1.734375 0.234375 1.734375 0.078125 L 1.75 -13.984375 C 1.75 -14.242188 1.851562 -14.445312 2.0625 -14.59375 C 2.28125 -14.738281 2.515625 -14.8125 2.765625 -14.8125 C 2.941406 -14.8125 3.109375 -14.773438 3.265625 -14.703125 C 3.429688 -14.628906 3.5625 -14.507812 3.65625 -14.34375 L 10.203125 -4.171875 L 12.546875 -0.5 C 12.585938 -0.4375 12.640625 -0.40625 12.703125 -0.40625 C 12.765625 -0.40625 12.796875 -0.46875 12.796875 -0.59375 Z M 12.796875 -0.59375 "/></g></g></g></g><g fill="#000000" fill-opacity="1"><g transform="translate(248.265299, 15.657519)"><g><path d="M 11.21875 -5.328125 L 1.953125 -5.328125 C 1.972656 -4.296875 2.222656 -3.398438 2.703125 -2.640625 C 3.179688 -1.878906 3.8125 -1.296875 4.59375 -0.890625 C 5.382812 -0.492188 6.25 -0.296875 7.1875 -0.296875 C 7.976562 -0.296875 8.75 -0.441406 9.5 -0.734375 C 10.25 -1.023438 10.898438 -1.4375 11.453125 -1.96875 C 11.578125 -2.070312 11.691406 -2.125 11.796875 -2.125 C 11.929688 -2.125 12.054688 -2.066406 12.171875 -1.953125 C 12.285156 -1.847656 12.34375 -1.726562 12.34375 -1.59375 C 12.34375 -1.5 12.210938 -1.332031 11.953125 -1.09375 C 11.691406 -0.863281 11.332031 -0.617188 10.875 -0.359375 C 10.425781 -0.109375 9.894531 0.101562 9.28125 0.28125 C 8.664062 0.46875 8 0.5625 7.28125 0.5625 C 6.101562 0.5625 5.039062 0.316406 4.09375 -0.171875 C 3.15625 -0.671875 2.410156 -1.367188 1.859375 -2.265625 C 1.304688 -3.160156 1.03125 -4.210938 1.03125 -5.421875 C 1.03125 -6.273438 1.175781 -7.066406 1.46875 -7.796875 C 1.769531 -8.535156 2.1875 -9.171875 2.71875 -9.703125 C 3.25 -10.242188 3.863281 -10.664062 4.5625 -10.96875 C 5.257812 -11.269531 6.023438 -11.421875 6.859375 -11.421875 C 7.867188 -11.421875 8.785156 -11.207031 9.609375 -10.78125 C 10.441406 -10.351562 11.125 -9.785156 11.65625 -9.078125 C 12.1875 -8.367188 12.492188 -7.578125 12.578125 -6.703125 C 12.578125 -6.679688 12.582031 -6.65625 12.59375 -6.625 C 12.601562 -6.59375 12.609375 -6.5625 12.609375 -6.53125 C 12.585938 -6.195312 12.46875 -5.910156 12.25 -5.671875 C 12.03125 -5.441406 11.6875 -5.328125 11.21875 -5.328125 Z M 1.953125 -6.25 L 11.265625 -6.25 C 11.441406 -6.25 11.550781 -6.273438 11.59375 -6.328125 C 11.632812 -6.390625 11.65625 -6.453125 11.65625 -6.515625 C 11.65625 -6.867188 11.5625 -7.269531 11.375 -7.71875 C 11.1875 -8.175781 10.894531 -8.617188 10.5 -9.046875 C 10.113281 -9.472656 9.617188 -9.828125 9.015625 -10.109375 C 8.410156 -10.390625 7.695312 -10.53125 6.875 -10.53125 C 6 -10.53125 5.21875 -10.34375 4.53125 -9.96875 C 3.84375 -9.601562 3.273438 -9.097656 2.828125 -8.453125 C 2.378906 -7.816406 2.085938 -7.082031 1.953125 -6.25 Z M 1.953125 -6.25 "/></g></g></g><g fill="#000000" fill-opacity="1"><g transform="translate(265.262256, 15.657519)"><g><path d="M 2.8125 -1.921875 L 2.8125 -10.390625 L 0.625 -10.390625 C 0.5 -10.390625 0.40625 -10.429688 0.34375 -10.515625 C 0.289062 -10.609375 0.265625 -10.703125 0.265625 -10.796875 C 0.265625 -10.898438 0.289062 -10.988281 0.34375 -11.0625 C 0.40625 -11.144531 0.5 -11.1875 0.625 -11.1875 L 2.8125 -11.1875 L 2.8125 -14.21875 C 2.8125 -14.351562 2.859375 -14.457031 2.953125 -14.53125 C 3.046875 -14.613281 3.148438 -14.65625 3.265625 -14.65625 C 3.367188 -14.65625 3.46875 -14.613281 3.5625 -14.53125 C 3.65625 -14.457031 3.703125 -14.351562 3.703125 -14.21875 L 3.703125 -11.1875 L 7.5625 -11.1875 C 7.707031 -11.1875 7.8125 -11.144531 7.875 -11.0625 C 7.945312 -10.988281 7.984375 -10.898438 7.984375 -10.796875 C 7.984375 -10.703125 7.945312 -10.609375 7.875 -10.515625 C 7.8125 -10.429688 7.707031 -10.390625 7.5625 -10.390625 L 3.703125 -10.390625 L 3.703125 -1.921875 C 3.703125 -1.296875 3.867188 -0.863281 4.203125 -0.625 C 4.546875 -0.394531 4.9375 -0.28125 5.375 -0.28125 C 5.757812 -0.28125 6.144531 -0.335938 6.53125 -0.453125 C 6.925781 -0.578125 7.238281 -0.703125 7.46875 -0.828125 C 7.570312 -0.878906 7.675781 -0.90625 7.78125 -0.90625 C 7.882812 -0.90625 7.972656 -0.867188 8.046875 -0.796875 C 8.117188 -0.722656 8.15625 -0.640625 8.15625 -0.546875 C 8.15625 -0.390625 8.054688 -0.242188 7.859375 -0.109375 C 7.660156 0.015625 7.414062 0.125 7.125 0.21875 C 6.832031 0.320312 6.523438 0.398438 6.203125 0.453125 C 5.890625 0.515625 5.609375 0.546875 5.359375 0.546875 C 4.898438 0.546875 4.476562 0.46875 4.09375 0.3125 C 3.71875 0.15625 3.410156 -0.101562 3.171875 -0.46875 C 2.929688 -0.832031 2.8125 -1.316406 2.8125 -1.921875 Z M 2.8125 -1.921875 "/></g></g></g><g fill="#000000" fill-opacity="1"><g transform="translate(277.282517, 15.657519)"><g><path d="M 10.875 -0.21875 L 8.84375 -7.625 C 8.789062 -7.820312 8.722656 -8.070312 8.640625 -8.375 C 8.566406 -8.675781 8.488281 -8.972656 8.40625 -9.265625 C 8.332031 -9.554688 8.269531 -9.800781 8.21875 -10 C 8.175781 -10.207031 8.15625 -10.3125 8.15625 -10.3125 C 8.132812 -10.394531 8.082031 -10.4375 8 -10.4375 C 7.925781 -10.4375 7.867188 -10.390625 7.828125 -10.296875 C 7.828125 -10.296875 7.796875 -10.1875 7.734375 -9.96875 C 7.679688 -9.757812 7.613281 -9.492188 7.53125 -9.171875 C 7.457031 -8.859375 7.378906 -8.546875 7.296875 -8.234375 C 7.210938 -7.929688 7.144531 -7.6875 7.09375 -7.5 L 5.125 -0.203125 C 5.050781 0.046875 4.921875 0.234375 4.734375 0.359375 C 4.546875 0.492188 4.34375 0.5625 4.125 0.5625 C 3.914062 0.5625 3.710938 0.492188 3.515625 0.359375 C 3.328125 0.222656 3.195312 0.03125 3.125 -0.21875 L 0.296875 -10.78125 C 0.285156 -10.800781 0.28125 -10.835938 0.28125 -10.890625 C 0.28125 -11.023438 0.332031 -11.128906 0.4375 -11.203125 C 0.539062 -11.273438 0.65625 -11.3125 0.78125 -11.3125 C 0.882812 -11.3125 0.976562 -11.285156 1.0625 -11.234375 C 1.15625 -11.179688 1.210938 -11.101562 1.234375 -11 L 3.046875 -3.984375 C 3.109375 -3.753906 3.1875 -3.453125 3.28125 -3.078125 C 3.375 -2.703125 3.46875 -2.328125 3.5625 -1.953125 C 3.664062 -1.585938 3.75 -1.273438 3.8125 -1.015625 C 3.882812 -0.765625 3.921875 -0.640625 3.921875 -0.640625 C 3.984375 -0.453125 4.050781 -0.359375 4.125 -0.359375 C 4.21875 -0.359375 4.289062 -0.457031 4.34375 -0.65625 C 4.34375 -0.65625 4.367188 -0.773438 4.421875 -1.015625 C 4.472656 -1.253906 4.546875 -1.550781 4.640625 -1.90625 C 4.742188 -2.257812 4.84375 -2.617188 4.9375 -2.984375 C 5.03125 -3.359375 5.113281 -3.675781 5.1875 -3.9375 L 7.078125 -10.609375 C 7.148438 -10.859375 7.269531 -11.039062 7.4375 -11.15625 C 7.613281 -11.269531 7.796875 -11.328125 7.984375 -11.328125 C 8.179688 -11.328125 8.363281 -11.269531 8.53125 -11.15625 C 8.707031 -11.039062 8.828125 -10.859375 8.890625 -10.609375 L 10.75 -4.125 C 10.789062 -3.9375 10.863281 -3.65625 10.96875 -3.28125 C 11.082031 -2.914062 11.191406 -2.535156 11.296875 -2.140625 C 11.410156 -1.742188 11.503906 -1.398438 11.578125 -1.109375 C 11.660156 -0.828125 11.703125 -0.6875 11.703125 -0.6875 C 11.734375 -0.53125 11.789062 -0.453125 11.875 -0.453125 C 11.90625 -0.453125 11.9375 -0.484375 11.96875 -0.546875 C 12.007812 -0.617188 12.066406 -0.773438 12.140625 -1.015625 C 12.222656 -1.265625 12.332031 -1.640625 12.46875 -2.140625 C 12.601562 -2.640625 12.785156 -3.320312 13.015625 -4.1875 L 14.859375 -11 C 14.878906 -11.101562 14.9375 -11.179688 15.03125 -11.234375 C 15.125 -11.285156 15.222656 -11.3125 15.328125 -11.3125 C 15.441406 -11.3125 15.546875 -11.28125 15.640625 -11.21875 C 15.742188 -11.15625 15.796875 -11.050781 15.796875 -10.90625 C 15.796875 -10.863281 15.789062 -10.820312 15.78125 -10.78125 L 12.859375 -0.21875 C 12.796875 0.0078125 12.664062 0.1875 12.46875 0.3125 C 12.28125 0.4375 12.082031 0.5 11.875 0.5 C 11.65625 0.5 11.445312 0.4375 11.25 0.3125 C 11.0625 0.1875 10.9375 0.0078125 10.875 -0.21875 Z M 10.875 -0.21875 "/></g></g></g><g fill="#000000" fill-opacity="1"><g transform="translate(296.908662, 15.657519)"><g><path d="M 6.78125 -0.25 C 7.726562 -0.25 8.566406 -0.46875 9.296875 -0.90625 C 10.035156 -1.34375 10.609375 -1.953125 11.015625 -2.734375 C 11.429688 -3.515625 11.640625 -4.410156 11.640625 -5.421875 C 11.640625 -6.453125 11.429688 -7.359375 11.015625 -8.140625 C 10.609375 -8.921875 10.039062 -9.535156 9.3125 -9.984375 C 8.582031 -10.441406 7.738281 -10.671875 6.78125 -10.671875 C 5.832031 -10.671875 4.992188 -10.441406 4.265625 -9.984375 C 3.535156 -9.535156 2.960938 -8.921875 2.546875 -8.140625 C 2.140625 -7.359375 1.9375 -6.453125 1.9375 -5.421875 C 1.9375 -4.410156 2.140625 -3.515625 2.546875 -2.734375 C 2.960938 -1.953125 3.535156 -1.34375 4.265625 -0.90625 C 5.003906 -0.46875 5.84375 -0.25 6.78125 -0.25 Z M 6.78125 0.578125 C 5.59375 0.578125 4.566406 0.328125 3.703125 -0.171875 C 2.847656 -0.679688 2.1875 -1.390625 1.71875 -2.296875 C 1.257812 -3.203125 1.03125 -4.242188 1.03125 -5.421875 C 1.03125 -6.617188 1.257812 -7.671875 1.71875 -8.578125 C 2.1875 -9.484375 2.847656 -10.191406 3.703125 -10.703125 C 4.566406 -11.210938 5.59375 -11.46875 6.78125 -11.46875 C 7.96875 -11.46875 8.992188 -11.210938 9.859375 -10.703125 C 10.722656 -10.191406 11.382812 -9.484375 11.84375 -8.578125 C 12.3125 -7.671875 12.546875 -6.617188 12.546875 -5.421875 C 12.546875 -4.242188 12.3125 -3.203125 11.84375 -2.296875 C 11.382812 -1.390625 10.722656 -0.679688 9.859375 -0.171875 C 9.003906 0.328125 7.976562 0.578125 6.78125 0.578125 Z M 6.78125 0.578125 "/></g></g></g><g fill="#000000" fill-opacity="1"><g transform="translate(314.055861, 15.657519)"><g><path d="M 1.59375 0.265625 L 1.59375 -10.8125 C 1.59375 -10.976562 1.640625 -11.101562 1.734375 -11.1875 C 1.828125 -11.269531 1.929688 -11.3125 2.046875 -11.3125 C 2.160156 -11.3125 2.265625 -11.265625 2.359375 -11.171875 C 2.460938 -11.078125 2.515625 -10.941406 2.515625 -10.765625 L 2.515625 -9.421875 C 2.554688 -9.523438 2.660156 -9.675781 2.828125 -9.875 C 2.992188 -10.070312 3.234375 -10.273438 3.546875 -10.484375 C 3.867188 -10.703125 4.273438 -10.890625 4.765625 -11.046875 C 5.265625 -11.203125 5.851562 -11.28125 6.53125 -11.28125 C 6.863281 -11.28125 7.226562 -11.242188 7.625 -11.171875 C 8.019531 -11.109375 8.40625 -11.015625 8.78125 -10.890625 C 9.164062 -10.773438 9.472656 -10.632812 9.703125 -10.46875 C 9.941406 -10.300781 10.0625 -10.109375 10.0625 -9.890625 C 10.0625 -9.742188 10.003906 -9.617188 9.890625 -9.515625 C 9.785156 -9.421875 9.660156 -9.375 9.515625 -9.375 C 9.367188 -9.375 9.226562 -9.445312 9.09375 -9.59375 C 8.925781 -9.789062 8.609375 -9.984375 8.140625 -10.171875 C 7.679688 -10.367188 7.109375 -10.46875 6.421875 -10.46875 C 5.421875 -10.46875 4.632812 -10.257812 4.0625 -9.84375 C 3.5 -9.4375 3.097656 -8.921875 2.859375 -8.296875 C 2.617188 -7.671875 2.5 -7.019531 2.5 -6.34375 L 2.5 0.265625 C 2.5 0.421875 2.453125 0.539062 2.359375 0.625 C 2.265625 0.707031 2.160156 0.75 2.046875 0.75 C 1.929688 0.75 1.828125 0.707031 1.734375 0.625 C 1.640625 0.539062 1.59375 0.421875 1.59375 0.265625 Z M 1.59375 0.265625 "/></g></g></g><g clip-path="url(#73c3d65af9)"><g fill="#000000" fill-opacity="1"><g transform="translate(328.048017, 15.657519)"><g><path d="M 10.25 0.53125 L 2.84375 -4.9375 C 2.5625 -5.125 2.390625 -5.375 2.328125 -5.6875 L 2.328125 0.15625 C 2.328125 0.3125 2.28125 0.429688 2.1875 0.515625 C 2.09375 0.597656 1.988281 0.640625 1.875 0.640625 C 1.757812 0.640625 1.65625 0.597656 1.5625 0.515625 C 1.46875 0.429688 1.421875 0.3125 1.421875 0.15625 L 1.421875 -14.6875 C 1.421875 -14.863281 1.46875 -14.988281 1.5625 -15.0625 C 1.65625 -15.132812 1.757812 -15.171875 1.875 -15.171875 C 1.988281 -15.171875 2.09375 -15.132812 2.1875 -15.0625 C 2.28125 -14.988281 2.328125 -14.863281 2.328125 -14.6875 L 2.328125 -5.734375 C 2.347656 -5.867188 2.398438 -6 2.484375 -6.125 C 2.566406 -6.25 2.6875 -6.359375 2.84375 -6.453125 L 9.734375 -11.171875 C 9.796875 -11.222656 9.875 -11.25 9.96875 -11.25 C 10.070312 -11.25 10.164062 -11.207031 10.25 -11.125 C 10.332031 -11.039062 10.375 -10.945312 10.375 -10.84375 C 10.375 -10.675781 10.285156 -10.53125 10.109375 -10.40625 L 3.703125 -5.984375 C 3.585938 -5.910156 3.53125 -5.8125 3.53125 -5.6875 C 3.53125 -5.601562 3.570312 -5.523438 3.65625 -5.453125 L 10.671875 -0.359375 C 10.859375 -0.222656 10.953125 -0.0625 10.953125 0.125 C 10.953125 0.25 10.90625 0.363281 10.8125 0.46875 C 10.726562 0.570312 10.625 0.625 10.5 0.625 C 10.425781 0.625 10.34375 0.59375 10.25 0.53125 Z M 10.25 0.53125 "/></g></g></g></g><path stroke-linecap="round" transform="matrix(1.083791, -0.000000000000000672, 0.000000000000000672, 1.083791, 13.343622, 93.532462)" fill="none" stroke-linejoin="miter" d="M 1.499485 1.498249 L 84.216961 1.498249 " stroke="#38b6ff" stroke-width="3" stroke-opacity="1" stroke-miterlimit="4"/><g clip-path="url(#f3a347c96d)"><path stroke-linecap="round" transform="matrix(1.08379, -0.00164381, 0.00164381, 1.08379, 235.306989, 93.760932)" fill="none" stroke-linejoin="miter" d="M 1.498576 1.498763 L 91.705782 1.498621 " stroke="#38b6ff" stroke-width="3" stroke-opacity="1" stroke-miterlimit="4"/></g><g clip-path="url(#620ddcd902)"><path stroke-linecap="round" transform="matrix(-0.766356, -0.766356, 0.766356, -0.766356, 174.767142, 257.865097)" fill="none" stroke-linejoin="miter" d="M 1.500744 1.498765 L 210.632762 1.498765 " stroke="#38b6ff" stroke-width="3" stroke-opacity="1" stroke-miterlimit="4"/></g><path stroke-linecap="butt" transform="matrix(0, 1.083791, -1.083791, 0, 127.694507, 61.635885)" fill="none" stroke-linejoin="miter" d="M 0.000768918 1.498624 L 40.000706 1.498624 " stroke="#38b6ff" stroke-width="3" stroke-opacity="1" stroke-miterlimit="4"/></g></g></svg>