<svg xmlns="http://www.w3.org/2000/svg" xmlns:xlink="http://www.w3.org/1999/xlink" width="500" zoomAndPan="magnify" viewBox="0 0 375 374.999991" height="500" preserveAspectRatio="xMidYMid meet" version="1.0"><defs><g/><clipPath id="4f1665c6fc"><path d="M 0.519531 37 L 1 37 L 1 38 L 0.519531 38 Z M 0.519531 37 " clip-rule="nonzero"/></clipPath><clipPath id="07fee52857"><rect x="0" width="101" y="0" height="44"/></clipPath><clipPath id="64a2daefa5"><path d="M 137.648438 90.960938 L 148.488281 90.960938 L 148.488281 101.796875 L 137.648438 101.796875 Z M 137.648438 90.960938 " clip-rule="nonzero"/></clipPath><clipPath id="ad85d87fe4"><path d="M 143.070312 90.960938 C 140.074219 90.960938 137.648438 93.386719 137.648438 96.378906 C 137.648438 99.371094 140.074219 101.796875 143.070312 101.796875 C 146.0625 101.796875 148.488281 99.371094 148.488281 96.378906 C 148.488281 93.386719 146.0625 90.960938 143.070312 90.960938 Z M 143.070312 90.960938 " clip-rule="nonzero"/></clipPath><clipPath id="2c06b18f1c"><path d="M 0.648438 0.960938 L 11.488281 0.960938 L 11.488281 11.796875 L 0.648438 11.796875 Z M 0.648438 0.960938 " clip-rule="nonzero"/></clipPath><clipPath id="ae8f6d69c2"><path d="M 6.070312 0.960938 C 3.074219 0.960938 0.648438 3.386719 0.648438 6.378906 C 0.648438 9.371094 3.074219 11.796875 6.070312 11.796875 C 9.0625 11.796875 11.488281 9.371094 11.488281 6.378906 C 11.488281 3.386719 9.0625 0.960938 6.070312 0.960938 Z M 6.070312 0.960938 " clip-rule="nonzero"/></clipPath><clipPath id="d965ed4cc0"><rect x="0" width="12" y="0" height="12"/></clipPath></defs><path stroke-linecap="round" transform="matrix(0.53033, -0.53033, 0.53033, 0.53033, 189.693726, 306.654647)" fill="none" stroke-linejoin="miter" d="M 1.999771 2.002793 L 304.542055 1.99911 " stroke="#38b6ff" stroke-width="4" stroke-opacity="1" stroke-miterlimit="4"/><g transform="matrix(1, 0, 0, 1, 137, 118)"><g clip-path="url(#07fee52857)"><g clip-path="url(#4f1665c6fc)"><g fill="#38b6ff" fill-opacity="1"><g transform="translate(0.649854, 37.611745)"><g/></g></g></g><g fill="#38b6ff" fill-opacity="1"><g transform="translate(10.034395, 37.611745)"><g/></g></g><g fill="#38b6ff" fill-opacity="1"><g transform="translate(19.429916, 37.611745)"><g><path d="M 5.78125 0 C 4.5 0 3.859375 -0.628906 3.859375 -1.890625 L 3.859375 -21.203125 C 3.859375 -22.234375 4.398438 -22.75 5.484375 -22.75 C 6.492188 -22.75 7.039062 -22.257812 7.125 -21.28125 L 7.328125 -18.609375 L 7.453125 -18.609375 C 8.265625 -20.085938 9.21875 -21.234375 10.3125 -22.046875 C 11.457031 -22.910156 12.65625 -23.34375 13.90625 -23.34375 C 14.1875 -23.34375 14.582031 -23.316406 15.09375 -23.265625 C 15.957031 -22.984375 16.273438 -22.367188 16.046875 -21.421875 C 15.765625 -20.128906 15.023438 -19.609375 13.828125 -19.859375 C 13.691406 -19.859375 13.550781 -19.859375 13.40625 -19.859375 C 12.34375 -19.859375 11.335938 -19.46875 10.390625 -18.6875 C 9.273438 -17.789062 8.367188 -16.4375 7.671875 -14.625 L 7.671875 -1.890625 C 7.671875 -0.628906 7.039062 0 5.78125 0 Z M 5.78125 0 "/></g></g></g><g fill="#38b6ff" fill-opacity="1"><g transform="translate(35.685289, 37.611745)"><g><path d="M 10.484375 0.546875 C 5.867188 0.546875 3.5625 -2.414062 3.5625 -8.34375 L 3.5625 -20.875 C 3.5625 -22.125 4.203125 -22.75 5.484375 -22.75 C 6.742188 -22.75 7.375 -22.125 7.375 -20.875 L 7.375 -8.796875 C 7.375 -6.671875 7.707031 -5.132812 8.375 -4.1875 C 9.050781 -3.238281 10.144531 -2.765625 11.65625 -2.765625 C 12.800781 -2.765625 13.847656 -3.070312 14.796875 -3.6875 C 15.691406 -4.25 16.695312 -5.226562 17.8125 -6.625 L 17.8125 -20.875 C 17.8125 -22.125 18.453125 -22.75 19.734375 -22.75 C 20.992188 -22.75 21.625 -22.125 21.625 -20.875 L 21.625 -1.59375 C 21.625 -0.53125 21.078125 0 19.984375 0 C 18.953125 0 18.394531 -0.503906 18.3125 -1.515625 L 18.140625 -3.5625 L 18.015625 -3.5625 C 16.867188 -2.21875 15.738281 -1.226562 14.625 -0.59375 C 13.34375 0.164062 11.960938 0.546875 10.484375 0.546875 Z M 10.484375 0.546875 "/></g></g></g><g fill="#38b6ff" fill-opacity="1"><g transform="translate(61.115724, 37.611745)"><g><path d="M 9.8125 0.546875 C 7.207031 0.546875 4.757812 -0.222656 2.46875 -1.765625 C 1.71875 -2.316406 1.632812 -3 2.21875 -3.8125 C 2.863281 -4.675781 3.617188 -4.789062 4.484375 -4.15625 C 6.210938 -3.007812 8.03125 -2.4375 9.9375 -2.4375 C 11.382812 -2.4375 12.515625 -2.785156 13.328125 -3.484375 C 14.054688 -4.117188 14.421875 -4.953125 14.421875 -5.984375 C 14.421875 -7.023438 13.875 -7.921875 12.78125 -8.671875 C 12.113281 -9.117188 10.925781 -9.664062 9.21875 -10.3125 C 7.125 -11.09375 5.601562 -11.859375 4.65625 -12.609375 C 3.175781 -13.753906 2.4375 -15.179688 2.4375 -16.890625 C 2.4375 -18.765625 3.117188 -20.285156 4.484375 -21.453125 C 5.929688 -22.710938 7.859375 -23.34375 10.265625 -23.34375 C 12.304688 -23.34375 14.273438 -22.753906 16.171875 -21.578125 C 16.953125 -21.046875 17.035156 -20.375 16.421875 -19.5625 C 15.804688 -18.726562 15.054688 -18.601562 14.171875 -19.1875 C 12.941406 -19.945312 11.640625 -20.328125 10.265625 -20.328125 C 8.921875 -20.328125 7.875 -20.003906 7.125 -19.359375 C 6.457031 -18.773438 6.125 -18.015625 6.125 -17.078125 C 6.125 -16.140625 6.582031 -15.363281 7.5 -14.75 C 8.082031 -14.363281 9.160156 -13.875 10.734375 -13.28125 C 10.921875 -13.195312 11.070312 -13.140625 11.1875 -13.109375 L 11.234375 -13.078125 C 13.460938 -12.234375 15.023438 -11.460938 15.921875 -10.765625 C 17.378906 -9.617188 18.109375 -8.097656 18.109375 -6.203125 C 18.109375 -4.273438 17.394531 -2.695312 15.96875 -1.46875 C 14.488281 -0.125 12.4375 0.546875 9.8125 0.546875 Z M 9.8125 0.546875 "/></g></g></g><g fill="#38b6ff" fill-opacity="1"><g transform="translate(80.722719, 37.611745)"><g><path d="M 9.8125 0.546875 C 7.207031 0.546875 4.757812 -0.222656 2.46875 -1.765625 C 1.71875 -2.316406 1.632812 -3 2.21875 -3.8125 C 2.863281 -4.675781 3.617188 -4.789062 4.484375 -4.15625 C 6.210938 -3.007812 8.03125 -2.4375 9.9375 -2.4375 C 11.382812 -2.4375 12.515625 -2.785156 13.328125 -3.484375 C 14.054688 -4.117188 14.421875 -4.953125 14.421875 -5.984375 C 14.421875 -7.023438 13.875 -7.921875 12.78125 -8.671875 C 12.113281 -9.117188 10.925781 -9.664062 9.21875 -10.3125 C 7.125 -11.09375 5.601562 -11.859375 4.65625 -12.609375 C 3.175781 -13.753906 2.4375 -15.179688 2.4375 -16.890625 C 2.4375 -18.765625 3.117188 -20.285156 4.484375 -21.453125 C 5.929688 -22.710938 7.859375 -23.34375 10.265625 -23.34375 C 12.304688 -23.34375 14.273438 -22.753906 16.171875 -21.578125 C 16.953125 -21.046875 17.035156 -20.375 16.421875 -19.5625 C 15.804688 -18.726562 15.054688 -18.601562 14.171875 -19.1875 C 12.941406 -19.945312 11.640625 -20.328125 10.265625 -20.328125 C 8.921875 -20.328125 7.875 -20.003906 7.125 -19.359375 C 6.457031 -18.773438 6.125 -18.015625 6.125 -17.078125 C 6.125 -16.140625 6.582031 -15.363281 7.5 -14.75 C 8.082031 -14.363281 9.160156 -13.875 10.734375 -13.28125 C 10.921875 -13.195312 11.070312 -13.140625 11.1875 -13.109375 L 11.234375 -13.078125 C 13.460938 -12.234375 15.023438 -11.460938 15.921875 -10.765625 C 17.378906 -9.617188 18.109375 -8.097656 18.109375 -6.203125 C 18.109375 -4.273438 17.394531 -2.695312 15.96875 -1.46875 C 14.488281 -0.125 12.4375 0.546875 9.8125 0.546875 Z M 9.8125 0.546875 "/></g></g></g></g></g><path stroke-linecap="round" transform="matrix(0.75, 0, 0, 0.75, 88.879268, 111.135931)" fill="none" stroke-linejoin="miter" d="M 1.999517 2.00105 L 262.447451 2.00105 " stroke="#38b6ff" stroke-width="4" stroke-opacity="1" stroke-miterlimit="4"/><g clip-path="url(#64a2daefa5)"><g clip-path="url(#ad85d87fe4)"><g transform="matrix(1, 0, 0, 1, 137, 90)"><g clip-path="url(#d965ed4cc0)"><g clip-path="url(#2c06b18f1c)"><g clip-path="url(#ae8f6d69c2)"><path fill="#7ed957" d="M 0.648438 0.960938 L 11.488281 0.960938 L 11.488281 11.796875 L 0.648438 11.796875 Z M 0.648438 0.960938 " fill-opacity="1" fill-rule="nonzero"/></g></g></g></g></g></g><path stroke-linecap="round" transform="matrix(0.75, -0.000000000000000558, 0.000000000000000558, 0.75, 30.34362, 144.658174)" fill="none" stroke-linejoin="miter" d="M 2.000173 1.997435 L 121.864765 1.997435 " stroke="#38b6ff" stroke-width="4" stroke-opacity="1" stroke-miterlimit="4"/><path stroke-linecap="round" transform="matrix(0.749999, -0.00113754, 0.00113754, 0.749999, 252.307138, 144.886572)" fill="none" stroke-linejoin="miter" d="M 1.998914 1.998021 L 132.686572 1.998322 " stroke="#38b6ff" stroke-width="4" stroke-opacity="1" stroke-miterlimit="4"/><path stroke-linecap="round" transform="matrix(-0.53033, -0.53033, 0.53033, -0.53033, 191.855426, 308.775976)" fill="none" stroke-linejoin="miter" d="M 1.998456 1.998537 L 304.544423 1.998537 " stroke="#38b6ff" stroke-width="4" stroke-opacity="1" stroke-miterlimit="4"/><path stroke-linecap="butt" transform="matrix(0, 0.75, -0.75, 0, 144.566817, 112.637863)" fill="none" stroke-linejoin="miter" d="M -0.00152567 2.000548 L 57.800561 2.000548 " stroke="#38b6ff" stroke-width="4" stroke-opacity="1" stroke-miterlimit="4"/></svg>