<svg xmlns="http://www.w3.org/2000/svg" xmlns:xlink="http://www.w3.org/1999/xlink" width="500" zoomAndPan="magnify" viewBox="0 0 375 374.999991" height="500" preserveAspectRatio="xMidYMid meet" version="1.0"><defs><g/><clipPath id="7dd62ba8cc"><path d="M 80.441406 55.4375 L 103.398438 55.4375 L 103.398438 78.394531 L 80.441406 78.394531 Z M 80.441406 55.4375 " clip-rule="nonzero"/></clipPath><clipPath id="6a87feac67"><path d="M 91.921875 55.4375 C 85.582031 55.4375 80.441406 60.578125 80.441406 66.917969 C 80.441406 73.253906 85.582031 78.394531 91.921875 78.394531 C 98.261719 78.394531 103.398438 73.253906 103.398438 66.917969 C 103.398438 60.578125 98.261719 55.4375 91.921875 55.4375 Z M 91.921875 55.4375 " clip-rule="nonzero"/></clipPath><clipPath id="5676e1fc7e"><path d="M 0.441406 0.4375 L 23.398438 0.4375 L 23.398438 23.394531 L 0.441406 23.394531 Z M 0.441406 0.4375 " clip-rule="nonzero"/></clipPath><clipPath id="25969e9b93"><path d="M 11.921875 0.4375 C 5.582031 0.4375 0.441406 5.578125 0.441406 11.917969 C 0.441406 18.253906 5.582031 23.394531 11.921875 23.394531 C 18.261719 23.394531 23.398438 18.253906 23.398438 11.917969 C 23.398438 5.578125 18.261719 0.4375 11.921875 0.4375 Z M 11.921875 0.4375 " clip-rule="nonzero"/></clipPath><clipPath id="8a70de91a6"><rect x="0" width="24" y="0" height="24"/></clipPath><clipPath id="b64db87a55"><rect x="0" width="194" y="0" height="90"/></clipPath></defs><path stroke-linecap="butt" transform="matrix(0, 0.75, -0.75, 0, 95.295687, 101.352241)" fill="none" stroke-linejoin="miter" d="M -0.000904059 4.498416 L 122.436604 4.498416 " stroke="#38b6ff" stroke-width="9" stroke-opacity="1" stroke-miterlimit="4"/><path stroke-linecap="round" transform="matrix(0.75, 0, 0, 0.75, 34.52801, 97.976888)" fill="none" stroke-linejoin="miter" d="M 4.499112 4.499566 L 393.426221 4.499566 " stroke="#38b6ff" stroke-width="9" stroke-opacity="1" stroke-miterlimit="4"/><g clip-path="url(#7dd62ba8cc)"><g clip-path="url(#6a87feac67)"><g transform="matrix(1, 0, 0, 1, 80, 55)"><g clip-path="url(#8a70de91a6)"><g clip-path="url(#5676e1fc7e)"><g clip-path="url(#25969e9b93)"><path fill="#7ed957" d="M 0.441406 0.4375 L 23.398438 0.4375 L 23.398438 23.394531 L 0.441406 23.394531 Z M 0.441406 0.4375 " fill-opacity="1" fill-rule="nonzero"/></g></g></g></g></g></g><g transform="matrix(1, 0, 0, 1, 121, 114)"><g clip-path="url(#b64db87a55)"><g fill="#38b6ff" fill-opacity="1"><g transform="translate(0.516286, 78.384876)"><g><path d="M 12.25 0 C 9.53125 0 8.171875 -1.332031 8.171875 -4 L 8.171875 -44.90625 C 8.171875 -47.09375 9.320312 -48.1875 11.625 -48.1875 C 13.757812 -48.1875 14.914062 -47.148438 15.09375 -45.078125 L 15.53125 -39.40625 L 15.796875 -39.40625 C 17.515625 -42.539062 19.523438 -44.96875 21.828125 -46.6875 C 24.253906 -48.519531 26.800781 -49.4375 29.46875 -49.4375 C 30.0625 -49.4375 30.890625 -49.375 31.953125 -49.25 C 33.785156 -48.664062 34.460938 -47.363281 33.984375 -45.34375 C 33.398438 -42.625 31.832031 -41.53125 29.28125 -42.0625 C 28.988281 -42.0625 28.695312 -42.0625 28.40625 -42.0625 C 26.15625 -42.0625 24.023438 -41.234375 22.015625 -39.578125 C 19.640625 -37.691406 17.710938 -34.820312 16.234375 -30.96875 L 16.234375 -4 C 16.234375 -1.332031 14.90625 0 12.25 0 Z M 12.25 0 "/></g></g></g><g fill="#38b6ff" fill-opacity="1"><g transform="translate(39.831167, 78.384876)"><g><path d="M 22.1875 1.15625 C 12.425781 1.15625 7.546875 -5.113281 7.546875 -17.65625 L 7.546875 -44.203125 C 7.546875 -46.859375 8.90625 -48.1875 11.625 -48.1875 C 14.289062 -48.1875 15.625 -46.859375 15.625 -44.203125 L 15.625 -18.640625 C 15.625 -14.140625 16.332031 -10.882812 17.75 -8.875 C 19.164062 -6.863281 21.472656 -5.859375 24.671875 -5.859375 C 27.097656 -5.859375 29.316406 -6.507812 31.328125 -7.8125 C 33.222656 -8.988281 35.351562 -11.054688 37.71875 -14.015625 L 37.71875 -44.203125 C 37.71875 -46.859375 39.078125 -48.1875 41.796875 -48.1875 C 44.460938 -48.1875 45.796875 -46.859375 45.796875 -44.203125 L 45.796875 -3.375 C 45.796875 -1.125 44.640625 0 42.328125 0 C 40.140625 0 38.957031 -1.0625 38.78125 -3.1875 L 38.421875 -7.546875 L 38.15625 -7.546875 C 35.738281 -4.703125 33.34375 -2.601562 30.96875 -1.25 C 28.25 0.351562 25.320312 1.15625 22.1875 1.15625 Z M 22.1875 1.15625 "/></g></g></g><g fill="#38b6ff" fill-opacity="1"><g transform="translate(98.580978, 78.384876)"><g><path d="M 20.765625 1.15625 C 15.265625 1.15625 10.085938 -0.472656 5.234375 -3.734375 C 3.640625 -4.910156 3.460938 -6.359375 4.703125 -8.078125 C 6.066406 -9.910156 7.664062 -10.144531 9.5 -8.78125 C 13.164062 -6.351562 17.007812 -5.140625 21.03125 -5.140625 C 24.113281 -5.140625 26.507812 -5.878906 28.21875 -7.359375 C 29.757812 -8.722656 30.53125 -10.5 30.53125 -12.6875 C 30.53125 -14.875 29.375 -16.769531 27.0625 -18.375 C 25.644531 -19.320312 23.132812 -20.472656 19.53125 -21.828125 C 15.09375 -23.484375 11.863281 -25.113281 9.84375 -26.71875 C 6.707031 -29.144531 5.140625 -32.160156 5.140625 -35.765625 C 5.140625 -39.734375 6.59375 -42.957031 9.5 -45.4375 C 12.570312 -48.101562 16.65625 -49.4375 21.75 -49.4375 C 26.0625 -49.4375 30.226562 -48.191406 34.25 -45.703125 C 35.914062 -44.578125 36.097656 -43.160156 34.796875 -41.453125 C 33.492188 -39.671875 31.894531 -39.398438 30 -40.640625 C 27.394531 -42.242188 24.644531 -43.046875 21.75 -43.046875 C 18.90625 -43.046875 16.6875 -42.363281 15.09375 -41 C 13.664062 -39.757812 12.953125 -38.144531 12.953125 -36.15625 C 12.953125 -34.175781 13.929688 -32.535156 15.890625 -31.234375 C 17.128906 -30.410156 19.40625 -29.378906 22.71875 -28.140625 C 23.132812 -27.960938 23.460938 -27.84375 23.703125 -27.78125 L 23.78125 -27.6875 C 28.519531 -25.914062 31.832031 -24.289062 33.71875 -22.8125 C 36.800781 -20.382812 38.34375 -17.160156 38.34375 -13.140625 C 38.34375 -9.054688 36.832031 -5.710938 33.8125 -3.109375 C 30.675781 -0.265625 26.328125 1.15625 20.765625 1.15625 Z M 20.765625 1.15625 "/></g></g></g><g fill="#38b6ff" fill-opacity="1"><g transform="translate(144.995378, 78.384876)"><g><path d="M 20.765625 1.15625 C 15.265625 1.15625 10.085938 -0.472656 5.234375 -3.734375 C 3.640625 -4.910156 3.460938 -6.359375 4.703125 -8.078125 C 6.066406 -9.910156 7.664062 -10.144531 9.5 -8.78125 C 13.164062 -6.351562 17.007812 -5.140625 21.03125 -5.140625 C 24.113281 -5.140625 26.507812 -5.878906 28.21875 -7.359375 C 29.757812 -8.722656 30.53125 -10.5 30.53125 -12.6875 C 30.53125 -14.875 29.375 -16.769531 27.0625 -18.375 C 25.644531 -19.320312 23.132812 -20.472656 19.53125 -21.828125 C 15.09375 -23.484375 11.863281 -25.113281 9.84375 -26.71875 C 6.707031 -29.144531 5.140625 -32.160156 5.140625 -35.765625 C 5.140625 -39.734375 6.59375 -42.957031 9.5 -45.4375 C 12.570312 -48.101562 16.65625 -49.4375 21.75 -49.4375 C 26.0625 -49.4375 30.226562 -48.191406 34.25 -45.703125 C 35.914062 -44.578125 36.097656 -43.160156 34.796875 -41.453125 C 33.492188 -39.671875 31.894531 -39.398438 30 -40.640625 C 27.394531 -42.242188 24.644531 -43.046875 21.75 -43.046875 C 18.90625 -43.046875 16.6875 -42.363281 15.09375 -41 C 13.664062 -39.757812 12.953125 -38.144531 12.953125 -36.15625 C 12.953125 -34.175781 13.929688 -32.535156 15.890625 -31.234375 C 17.128906 -30.410156 19.40625 -29.378906 22.71875 -28.140625 C 23.132812 -27.960938 23.460938 -27.84375 23.703125 -27.78125 L 23.78125 -27.6875 C 28.519531 -25.914062 31.832031 -24.289062 33.71875 -22.8125 C 36.800781 -20.382812 38.34375 -17.160156 38.34375 -13.140625 C 38.34375 -9.054688 36.832031 -5.710938 33.8125 -3.109375 C 30.675781 -0.265625 26.328125 1.15625 20.765625 1.15625 Z M 20.765625 1.15625 "/></g></g></g></g></g></svg>