<svg xmlns="http://www.w3.org/2000/svg" xmlns:xlink="http://www.w3.org/1999/xlink" width="500" zoomAndPan="magnify" viewBox="0 0 375 374.999991" height="500" preserveAspectRatio="xMidYMid meet" version="1.0"><defs><g/><clipPath id="eb93c82cc5"><path d="M 375 37.5 L 375 337.5 C 375 358.210938 358.210938 375 337.5 375 L 37.5 375 C 16.789062 375 0 358.210938 0 337.5 L 0 37.5 C 0 16.789062 16.789062 0 37.5 0 L 337.5 0 C 347.445312 0 356.984375 3.949219 364.015625 10.984375 C 371.050781 18.015625 375 27.554688 375 37.5 Z M 375 37.5 " clip-rule="nonzero"/></clipPath><clipPath id="ef237aabbe"><path d="M 0 0 L 375 0 L 375 375 L 0 375 Z M 0 0 " clip-rule="nonzero"/></clipPath><clipPath id="fe9e60b0d2"><path d="M 375 37.5 L 375 337.5 C 375 358.210938 358.210938 375 337.5 375 L 37.5 375 C 16.789062 375 0 358.210938 0 337.5 L 0 37.5 C 0 16.789062 16.789062 0 37.5 0 L 337.5 0 C 347.445312 0 356.984375 3.949219 364.015625 10.984375 C 371.050781 18.015625 375 27.554688 375 37.5 Z M 375 37.5 " clip-rule="nonzero"/></clipPath><clipPath id="7f5869d502"><rect x="0" width="375" y="0" height="375"/></clipPath><clipPath id="6bce419304"><path d="M 121.757812 67.535156 L 142.40625 67.535156 L 142.40625 88.183594 L 121.757812 88.183594 Z M 121.757812 67.535156 " clip-rule="nonzero"/></clipPath><clipPath id="e48e82addb"><path d="M 132.082031 67.535156 C 126.378906 67.535156 121.757812 72.15625 121.757812 77.859375 C 121.757812 83.558594 126.378906 88.183594 132.082031 88.183594 C 137.78125 88.183594 142.40625 83.558594 142.40625 77.859375 C 142.40625 72.15625 137.78125 67.535156 132.082031 67.535156 Z M 132.082031 67.535156 " clip-rule="nonzero"/></clipPath><clipPath id="83e6b0f282"><path d="M 0.757812 0.535156 L 21.40625 0.535156 L 21.40625 21.183594 L 0.757812 21.183594 Z M 0.757812 0.535156 " clip-rule="nonzero"/></clipPath><clipPath id="70c9654828"><path d="M 11.082031 0.535156 C 5.378906 0.535156 0.757812 5.15625 0.757812 10.859375 C 0.757812 16.558594 5.378906 21.183594 11.082031 21.183594 C 16.78125 21.183594 21.40625 16.558594 21.40625 10.859375 C 21.40625 5.15625 16.78125 0.535156 11.082031 0.535156 Z M 11.082031 0.535156 " clip-rule="nonzero"/></clipPath><clipPath id="9a4b22e0a8"><rect x="0" width="22" y="0" height="22"/></clipPath></defs><g clip-path="url(#eb93c82cc5)"><g transform="matrix(1, 0, 0, 1, 0, 0)"><g clip-path="url(#7f5869d502)"><g clip-path="url(#ef237aabbe)"><g clip-path="url(#fe9e60b0d2)"><rect x="-82.5" width="540" fill="#ffffff" height="539.999987" y="-82.499998" fill-opacity="1"/></g></g></g></g></g><path stroke-linecap="round" transform="matrix(0.53033, -0.53033, 0.53033, 0.53033, 180.194889, 316.608231)" fill="none" stroke-linejoin="miter" d="M 7.998466 8.000623 L 339.093871 8.000623 " stroke="#38b6ff" stroke-width="16" stroke-opacity="1" stroke-miterlimit="4"/><g fill="#38b6ff" fill-opacity="1"><g transform="translate(137.215175, 148.944672)"><g/></g></g><g fill="#38b6ff" fill-opacity="1"><g transform="translate(147.972987, 148.944672)"><g><path d="M 7.5625 0 C 4.769531 0 3.375 -1.378906 3.375 -4.140625 L 3.375 -23.34375 C 3.375 -25.59375 4.550781 -26.71875 6.90625 -26.71875 C 9.125 -26.71875 10.34375 -25.6875 10.5625 -23.625 L 10.75 -22.078125 L 10.9375 -22.078125 C 11.882812 -23.796875 13.0625 -25.125 14.46875 -26.0625 C 15.78125 -26.9375 17.140625 -27.375 18.546875 -27.375 C 18.640625 -27.375 18.71875 -27.375 18.78125 -27.375 C 19.789062 -27.1875 20.484375 -26.6875 20.859375 -25.875 C 21.203125 -25.09375 21.265625 -24.15625 21.046875 -23.0625 C 20.859375 -22.09375 20.46875 -21.328125 19.875 -20.765625 C 19.238281 -20.171875 18.46875 -19.9375 17.5625 -20.0625 C 17.53125 -20.0625 17.5 -20.0625 17.46875 -20.0625 C 16.375 -20.0625 15.34375 -19.695312 14.375 -18.96875 C 13.25 -18.125 12.351562 -16.890625 11.6875 -15.265625 L 11.6875 -4.140625 C 11.6875 -1.378906 10.3125 0 7.5625 0 Z M 7.5625 0 "/></g></g></g><g fill="#38b6ff" fill-opacity="1"><g transform="translate(169.766461, 148.944672)"><g><path d="M 11.40625 0.65625 C 5.863281 0.65625 3.09375 -2.957031 3.09375 -10.1875 L 3.09375 -22.546875 C 3.09375 -25.328125 4.488281 -26.71875 7.28125 -26.71875 C 10.0625 -26.71875 11.453125 -25.328125 11.453125 -22.546875 L 11.453125 -11.21875 C 11.453125 -9.4375 11.707031 -8.1875 12.21875 -7.46875 C 12.6875 -6.8125 13.46875 -6.484375 14.5625 -6.484375 C 15.5 -6.484375 16.296875 -6.6875 16.953125 -7.09375 C 17.609375 -7.5 18.296875 -8.203125 19.015625 -9.203125 L 19.015625 -22.546875 C 19.015625 -25.328125 20.410156 -26.71875 23.203125 -26.71875 C 25.984375 -26.71875 27.375 -25.328125 27.375 -22.546875 L 27.375 -3.375 C 27.375 -1.125 26.1875 0 23.8125 0 C 21.625 0 20.375 -1 20.0625 -3 L 19.96875 -3.65625 L 19.78125 -3.65625 C 17.363281 -0.78125 14.570312 0.65625 11.40625 0.65625 Z M 11.40625 0.65625 "/></g></g></g><g fill="#38b6ff" fill-opacity="1"><g transform="translate(200.483993, 148.944672)"><g><path d="M 11.359375 0.65625 C 8.765625 0.65625 6.164062 -0.03125 3.5625 -1.40625 C 1.90625 -2.53125 1.671875 -3.925781 2.859375 -5.59375 C 3.484375 -6.46875 4.269531 -6.96875 5.21875 -7.09375 C 6.09375 -7.1875 7 -6.9375 7.9375 -6.34375 C 9.15625 -5.78125 10.359375 -5.5 11.546875 -5.5 C 13.648438 -5.5 14.703125 -6.203125 14.703125 -7.609375 C 14.703125 -8.234375 14.28125 -8.796875 13.4375 -9.296875 C 12.9375 -9.609375 11.929688 -10.046875 10.421875 -10.609375 C 9.984375 -10.796875 9.640625 -10.9375 9.390625 -11.03125 C 4.753906 -12.882812 2.4375 -15.5 2.4375 -18.875 C 2.4375 -21.414062 3.382812 -23.46875 5.28125 -25.03125 C 7.175781 -26.59375 9.675781 -27.375 12.78125 -27.375 C 15.3125 -27.375 17.722656 -26.75 20.015625 -25.5 C 20.859375 -24.9375 21.3125 -24.328125 21.375 -23.671875 C 21.40625 -23.046875 21.09375 -22.296875 20.4375 -21.421875 C 19.832031 -20.640625 19.113281 -20.1875 18.28125 -20.0625 C 17.457031 -19.9375 16.609375 -20.125 15.734375 -20.625 C 14.765625 -21.03125 13.875 -21.234375 13.0625 -21.234375 C 11.175781 -21.234375 10.234375 -20.585938 10.234375 -19.296875 C 10.234375 -18.671875 10.640625 -18.125 11.453125 -17.65625 C 11.960938 -17.375 12.953125 -16.984375 14.421875 -16.484375 C 14.890625 -16.328125 15.234375 -16.203125 15.453125 -16.109375 C 17.578125 -15.296875 19.175781 -14.40625 20.25 -13.4375 C 21.75 -12.019531 22.5 -10.234375 22.5 -8.078125 C 22.5 -5.515625 21.5625 -3.445312 19.6875 -1.875 C 17.675781 -0.1875 14.898438 0.65625 11.359375 0.65625 Z M 11.359375 0.65625 "/></g></g></g><g fill="#38b6ff" fill-opacity="1"><g transform="translate(224.438032, 148.944672)"><g><path d="M 11.359375 0.65625 C 8.765625 0.65625 6.164062 -0.03125 3.5625 -1.40625 C 1.90625 -2.53125 1.671875 -3.925781 2.859375 -5.59375 C 3.484375 -6.46875 4.269531 -6.96875 5.21875 -7.09375 C 6.09375 -7.1875 7 -6.9375 7.9375 -6.34375 C 9.15625 -5.78125 10.359375 -5.5 11.546875 -5.5 C 13.648438 -5.5 14.703125 -6.203125 14.703125 -7.609375 C 14.703125 -8.234375 14.28125 -8.796875 13.4375 -9.296875 C 12.9375 -9.609375 11.929688 -10.046875 10.421875 -10.609375 C 9.984375 -10.796875 9.640625 -10.9375 9.390625 -11.03125 C 4.753906 -12.882812 2.4375 -15.5 2.4375 -18.875 C 2.4375 -21.414062 3.382812 -23.46875 5.28125 -25.03125 C 7.175781 -26.59375 9.675781 -27.375 12.78125 -27.375 C 15.3125 -27.375 17.722656 -26.75 20.015625 -25.5 C 20.859375 -24.9375 21.3125 -24.328125 21.375 -23.671875 C 21.40625 -23.046875 21.09375 -22.296875 20.4375 -21.421875 C 19.832031 -20.640625 19.113281 -20.1875 18.28125 -20.0625 C 17.457031 -19.9375 16.609375 -20.125 15.734375 -20.625 C 14.765625 -21.03125 13.875 -21.234375 13.0625 -21.234375 C 11.175781 -21.234375 10.234375 -20.585938 10.234375 -19.296875 C 10.234375 -18.671875 10.640625 -18.125 11.453125 -17.65625 C 11.960938 -17.375 12.953125 -16.984375 14.421875 -16.484375 C 14.890625 -16.328125 15.234375 -16.203125 15.453125 -16.109375 C 17.578125 -15.296875 19.175781 -14.40625 20.25 -13.4375 C 21.75 -12.019531 22.5 -10.234375 22.5 -8.078125 C 22.5 -5.515625 21.5625 -3.445312 19.6875 -1.875 C 17.675781 -0.1875 14.898438 0.65625 11.359375 0.65625 Z M 11.359375 0.65625 "/></g></g></g><path stroke-linecap="round" transform="matrix(0.75, 0, 0, 0.75, 72.089208, 94.33071)" fill="none" stroke-linejoin="miter" d="M 8.000849 8.001762 L 288.422742 8.001762 " stroke="#38b6ff" stroke-width="16" stroke-opacity="1" stroke-miterlimit="4"/><g clip-path="url(#6bce419304)"><g clip-path="url(#e48e82addb)"><g transform="matrix(1, 0, 0, 1, 121, 67)"><g clip-path="url(#9a4b22e0a8)"><g clip-path="url(#83e6b0f282)"><g clip-path="url(#70c9654828)"><path fill="#7ed957" d="M 0.757812 0.535156 L 21.40625 0.535156 L 21.40625 21.183594 L 0.757812 21.183594 Z M 0.757812 0.535156 " fill-opacity="1" fill-rule="nonzero"/></g></g></g></g></g></g><path stroke-linecap="round" transform="matrix(0.75, 0, 0, 0.75, 6.475017, 134.99107)" fill="none" stroke-linejoin="miter" d="M 8.002062 8.00149 L 130.840611 8.00149 " stroke="#38b6ff" stroke-width="16" stroke-opacity="1" stroke-miterlimit="4"/><path stroke-linecap="round" transform="matrix(0.749999, -0.00113754, 0.00113754, 0.749999, 255.273943, 134.70194)" fill="none" stroke-linejoin="miter" d="M 7.498373 7.502546 L 143.4725 7.500448 " stroke="#38b6ff" stroke-width="15" stroke-opacity="1" stroke-miterlimit="4"/><path stroke-linecap="round" transform="matrix(-0.53033, -0.53033, 0.53033, -0.53033, 186.318743, 325.093483)" fill="none" stroke-linejoin="miter" d="M 7.997415 8.000374 L 339.09282 8.000374 " stroke="#38b6ff" stroke-width="16" stroke-opacity="1" stroke-miterlimit="4"/><path stroke-linecap="butt" transform="matrix(0, 0.75, -0.75, 0, 137.702691, 100.334744)" fill="none" stroke-linejoin="miter" d="M 0.00159158 7.499421 L 64.793263 7.499421 " stroke="#38b6ff" stroke-width="15" stroke-opacity="1" stroke-miterlimit="4"/></svg>
