<svg xmlns="http://www.w3.org/2000/svg" xmlns:xlink="http://www.w3.org/1999/xlink" width="500" zoomAndPan="magnify" viewBox="0 0 375 374.999991" height="500" preserveAspectRatio="xMidYMid meet" version="1.0"><defs><g/><clipPath id="bebf6d3be9"><path d="M 375 37.5 L 375 337.5 C 375 358.210938 358.210938 375 337.5 375 L 37.5 375 C 16.789062 375 0 358.210938 0 337.5 L 0 37.5 C 0 16.789062 16.789062 0 37.5 0 L 337.5 0 C 347.445312 0 356.984375 3.949219 364.015625 10.984375 C 371.050781 18.015625 375 27.554688 375 37.5 Z M 375 37.5 " clip-rule="nonzero"/></clipPath><clipPath id="29dd2678f0"><path d="M 0 0 L 375 0 L 375 375 L 0 375 Z M 0 0 " clip-rule="nonzero"/></clipPath><clipPath id="5dcf51c500"><path d="M 375 37.5 L 375 337.5 C 375 358.210938 358.210938 375 337.5 375 L 37.5 375 C 16.789062 375 0 358.210938 0 337.5 L 0 37.5 C 0 16.789062 16.789062 0 37.5 0 L 337.5 0 C 347.445312 0 356.984375 3.949219 364.015625 10.984375 C 371.050781 18.015625 375 27.554688 375 37.5 Z M 375 37.5 " clip-rule="nonzero"/></clipPath><clipPath id="eb2fe3dbc1"><rect x="0" width="375" y="0" height="375"/></clipPath><clipPath id="419547a05a"><path d="M 164 43 L 366.078125 43 L 366.078125 245.398438 L 164 245.398438 Z M 164 43 " clip-rule="nonzero"/></clipPath><clipPath id="1c5a90fde5"><path d="M 0.71875 41 L 1 41 L 1 42 L 0.71875 42 Z M 0.71875 41 " clip-rule="nonzero"/></clipPath><clipPath id="925432d501"><rect x="0" width="113" y="0" height="48"/></clipPath><clipPath id="c871ded773"><path d="M 122.757812 1.035156 L 134.90625 1.035156 L 134.90625 13.183594 L 122.757812 13.183594 Z M 122.757812 1.035156 " clip-rule="nonzero"/></clipPath><clipPath id="55591068e1"><path d="M 128.832031 1.035156 C 125.476562 1.035156 122.757812 3.753906 122.757812 7.109375 C 122.757812 10.460938 125.476562 13.183594 128.832031 13.183594 C 132.1875 13.183594 134.90625 10.460938 134.90625 7.109375 C 134.90625 3.753906 132.1875 1.035156 128.832031 1.035156 Z M 128.832031 1.035156 " clip-rule="nonzero"/></clipPath><clipPath id="5b458f0f24"><path d="M 0.757812 0.0351562 L 12.90625 0.0351562 L 12.90625 12.183594 L 0.757812 12.183594 Z M 0.757812 0.0351562 " clip-rule="nonzero"/></clipPath><clipPath id="2cb64e3539"><path d="M 6.832031 0.0351562 C 3.476562 0.0351562 0.757812 2.753906 0.757812 6.109375 C 0.757812 9.460938 3.476562 12.183594 6.832031 12.183594 C 10.1875 12.183594 12.90625 9.460938 12.90625 6.109375 C 12.90625 2.753906 10.1875 0.0351562 6.832031 0.0351562 Z M 6.832031 0.0351562 " clip-rule="nonzero"/></clipPath><clipPath id="bf33c1bbd2"><rect x="0" width="13" y="0" height="13"/></clipPath><clipPath id="1171efab31"><path d="M 233 43 L 366.078125 43 L 366.078125 83 L 233 83 Z M 233 43 " clip-rule="nonzero"/></clipPath><clipPath id="5c07fe1c66"><path d="M 0.800781 43 L 203 43 L 203 245.398438 L 0.800781 245.398438 Z M 0.800781 43 " clip-rule="nonzero"/></clipPath><clipPath id="2d73a93a2d"><rect x="0" width="367" y="0" height="246"/></clipPath></defs><g clip-path="url(#bebf6d3be9)"><g transform="matrix(1, 0, 0, 1, 0, 0)"><g clip-path="url(#eb2fe3dbc1)"><g clip-path="url(#29dd2678f0)"><g clip-path="url(#5dcf51c500)"><rect x="-82.5" width="540" fill="#ffffff" height="539.999987" y="-82.499998" fill-opacity="1"/></g></g></g></g></g><g transform="matrix(1, 0, 0, 1, 4, 75)"><g clip-path="url(#2d73a93a2d)"><g clip-path="url(#419547a05a)"><path stroke-linecap="round" transform="matrix(0.594461, -0.594461, 0.594461, 0.594461, 181.09488, 242.811601)" fill="none" stroke-linejoin="miter" d="M 1.999185 2.000698 L 304.54463 2.000698 " stroke="#38b6ff" stroke-width="4" stroke-opacity="1" stroke-miterlimit="4"/></g><g transform="matrix(1, 0, 0, 1, 122, 32)"><g clip-path="url(#925432d501)"><g clip-path="url(#1c5a90fde5)"><g fill="#38b6ff" fill-opacity="1"><g transform="translate(0.757482, 41.503545)"><g/></g></g></g><g fill="#38b6ff" fill-opacity="1"><g transform="translate(11.276868, 41.503545)"><g/></g></g><g fill="#38b6ff" fill-opacity="1"><g transform="translate(21.808562, 41.503545)"><g><path d="M 6.484375 0 C 5.046875 0 4.328125 -0.703125 4.328125 -2.109375 L 4.328125 -23.765625 C 4.328125 -24.921875 4.9375 -25.5 6.15625 -25.5 C 7.28125 -25.5 7.890625 -24.953125 7.984375 -23.859375 L 8.21875 -20.859375 L 8.359375 -20.859375 C 9.265625 -22.515625 10.328125 -23.796875 11.546875 -24.703125 C 12.835938 -25.671875 14.1875 -26.15625 15.59375 -26.15625 C 15.90625 -26.15625 16.34375 -26.125 16.90625 -26.0625 C 17.875 -25.75 18.234375 -25.0625 17.984375 -24 C 17.671875 -22.5625 16.84375 -21.984375 15.5 -22.265625 C 15.34375 -22.265625 15.1875 -22.265625 15.03125 -22.265625 C 13.84375 -22.265625 12.710938 -21.828125 11.640625 -20.953125 C 10.390625 -19.941406 9.375 -18.421875 8.59375 -16.390625 L 8.59375 -2.109375 C 8.59375 -0.703125 7.890625 0 6.484375 0 Z M 6.484375 0 "/></g></g></g><g fill="#38b6ff" fill-opacity="1"><g transform="translate(40.029651, 41.503545)"><g><path d="M 11.734375 0.609375 C 6.578125 0.609375 4 -2.707031 4 -9.34375 L 4 -23.390625 C 4 -24.796875 4.71875 -25.5 6.15625 -25.5 C 7.5625 -25.5 8.265625 -24.796875 8.265625 -23.390625 L 8.265625 -9.859375 C 8.265625 -7.484375 8.640625 -5.757812 9.390625 -4.6875 C 10.140625 -3.625 11.363281 -3.09375 13.0625 -3.09375 C 14.34375 -3.09375 15.515625 -3.441406 16.578125 -4.140625 C 17.578125 -4.765625 18.707031 -5.859375 19.96875 -7.421875 L 19.96875 -23.390625 C 19.96875 -24.796875 20.6875 -25.5 22.125 -25.5 C 23.53125 -25.5 24.234375 -24.796875 24.234375 -23.390625 L 24.234375 -1.78125 C 24.234375 -0.59375 23.625 0 22.40625 0 C 21.25 0 20.625 -0.5625 20.53125 -1.6875 L 20.34375 -4 L 20.203125 -4 C 18.910156 -2.488281 17.640625 -1.375 16.390625 -0.65625 C 14.953125 0.1875 13.398438 0.609375 11.734375 0.609375 Z M 11.734375 0.609375 "/></g></g></g><g fill="#38b6ff" fill-opacity="1"><g transform="translate(68.535316, 41.503545)"><g><path d="M 10.984375 0.609375 C 8.078125 0.609375 5.335938 -0.25 2.765625 -1.96875 C 1.921875 -2.59375 1.828125 -3.363281 2.484375 -4.28125 C 3.203125 -5.25 4.050781 -5.375 5.03125 -4.65625 C 6.96875 -3.363281 9 -2.71875 11.125 -2.71875 C 12.757812 -2.71875 14.03125 -3.109375 14.9375 -3.890625 C 15.75 -4.617188 16.15625 -5.5625 16.15625 -6.71875 C 16.15625 -7.875 15.546875 -8.875 14.328125 -9.71875 C 13.578125 -10.21875 12.242188 -10.828125 10.328125 -11.546875 C 7.984375 -12.429688 6.28125 -13.296875 5.21875 -14.140625 C 3.550781 -15.421875 2.71875 -17.015625 2.71875 -18.921875 C 2.71875 -21.023438 3.488281 -22.734375 5.03125 -24.046875 C 6.65625 -25.453125 8.8125 -26.15625 11.5 -26.15625 C 13.789062 -26.15625 16 -25.5 18.125 -24.1875 C 19 -23.59375 19.09375 -22.84375 18.40625 -21.9375 C 17.71875 -21 16.875 -20.859375 15.875 -21.515625 C 14.5 -22.359375 13.039062 -22.78125 11.5 -22.78125 C 10 -22.78125 8.828125 -22.421875 7.984375 -21.703125 C 7.234375 -21.046875 6.859375 -20.191406 6.859375 -19.140625 C 6.859375 -18.085938 7.375 -17.21875 8.40625 -16.53125 C 9.0625 -16.09375 10.269531 -15.546875 12.03125 -14.890625 C 12.25 -14.796875 12.421875 -14.734375 12.546875 -14.703125 L 12.59375 -14.65625 C 15.09375 -13.71875 16.84375 -12.859375 17.84375 -12.078125 C 19.476562 -10.785156 20.296875 -9.078125 20.296875 -6.953125 C 20.296875 -4.785156 19.492188 -3.015625 17.890625 -1.640625 C 16.234375 -0.140625 13.929688 0.609375 10.984375 0.609375 Z M 10.984375 0.609375 "/></g></g></g><g fill="#38b6ff" fill-opacity="1"><g transform="translate(90.513327, 41.503545)"><g><path d="M 10.984375 0.609375 C 8.078125 0.609375 5.335938 -0.25 2.765625 -1.96875 C 1.921875 -2.59375 1.828125 -3.363281 2.484375 -4.28125 C 3.203125 -5.25 4.050781 -5.375 5.03125 -4.65625 C 6.96875 -3.363281 9 -2.71875 11.125 -2.71875 C 12.757812 -2.71875 14.03125 -3.109375 14.9375 -3.890625 C 15.75 -4.617188 16.15625 -5.5625 16.15625 -6.71875 C 16.15625 -7.875 15.546875 -8.875 14.328125 -9.71875 C 13.578125 -10.21875 12.242188 -10.828125 10.328125 -11.546875 C 7.984375 -12.429688 6.28125 -13.296875 5.21875 -14.140625 C 3.550781 -15.421875 2.71875 -17.015625 2.71875 -18.921875 C 2.71875 -21.023438 3.488281 -22.734375 5.03125 -24.046875 C 6.65625 -25.453125 8.8125 -26.15625 11.5 -26.15625 C 13.789062 -26.15625 16 -25.5 18.125 -24.1875 C 19 -23.59375 19.09375 -22.84375 18.40625 -21.9375 C 17.71875 -21 16.875 -20.859375 15.875 -21.515625 C 14.5 -22.359375 13.039062 -22.78125 11.5 -22.78125 C 10 -22.78125 8.828125 -22.421875 7.984375 -21.703125 C 7.234375 -21.046875 6.859375 -20.191406 6.859375 -19.140625 C 6.859375 -18.085938 7.375 -17.21875 8.40625 -16.53125 C 9.0625 -16.09375 10.269531 -15.546875 12.03125 -14.890625 C 12.25 -14.796875 12.421875 -14.734375 12.546875 -14.703125 L 12.59375 -14.65625 C 15.09375 -13.71875 16.84375 -12.859375 17.84375 -12.078125 C 19.476562 -10.785156 20.296875 -9.078125 20.296875 -6.953125 C 20.296875 -4.785156 19.492188 -3.015625 17.890625 -1.640625 C 16.234375 -0.140625 13.929688 0.609375 10.984375 0.609375 Z M 10.984375 0.609375 "/></g></g></g></g></g><path stroke-linecap="round" transform="matrix(0.840695, 0, 0, 0.840695, 68.089208, 23.649317)" fill="none" stroke-linejoin="miter" d="M 1.998731 2.001574 L 262.446282 2.001574 " stroke="#38b6ff" stroke-width="4" stroke-opacity="1" stroke-miterlimit="4"/><g clip-path="url(#c871ded773)"><g clip-path="url(#55591068e1)"><g transform="matrix(1, 0, 0, 1, 122, 1)"><g clip-path="url(#bf33c1bbd2)"><g clip-path="url(#5b458f0f24)"><g clip-path="url(#2cb64e3539)"><path fill="#7ed957" d="M 0.757812 0.0351562 L 12.90625 0.0351562 L 12.90625 12.183594 L 0.757812 12.183594 Z M 0.757812 0.0351562 " fill-opacity="1" fill-rule="nonzero"/></g></g></g></g></g></g><path stroke-linecap="round" transform="matrix(0.840695, -0.000000000000000626, 0.000000000000000626, 0.840695, 2.475017, 61.225318)" fill="none" stroke-linejoin="miter" d="M 1.999812 1.999454 L 121.864324 1.999454 " stroke="#38b6ff" stroke-width="4" stroke-opacity="1" stroke-miterlimit="4"/><g clip-path="url(#1171efab31)"><path stroke-linecap="round" transform="matrix(0.840694, -0.0012751, 0.0012751, 0.840694, 251.279948, 61.481417)" fill="none" stroke-linejoin="miter" d="M 2.001139 1.999883 L 132.687392 1.998301 " stroke="#38b6ff" stroke-width="4" stroke-opacity="1" stroke-miterlimit="4"/></g><g clip-path="url(#5c07fe1c66)"><path stroke-linecap="round" transform="matrix(-0.594461, -0.594461, 0.594461, -0.594461, 183.51798, 245.189422)" fill="none" stroke-linejoin="miter" d="M 1.997919 2.000528 L 304.543364 2.000528 " stroke="#38b6ff" stroke-width="4" stroke-opacity="1" stroke-miterlimit="4"/></g><path stroke-linecap="butt" transform="matrix(0, 0.840695, -0.840695, 0, 130.5109, 25.332935)" fill="none" stroke-linejoin="miter" d="M -0.00107549 2.001646 L 57.800782 2.001646 " stroke="#38b6ff" stroke-width="4" stroke-opacity="1" stroke-miterlimit="4"/></g></g></svg>