<svg xmlns="http://www.w3.org/2000/svg" xmlns:xlink="http://www.w3.org/1999/xlink" width="500" zoomAndPan="magnify" viewBox="0 0 375 374.999991" height="500" preserveAspectRatio="xMidYMid meet" version="1.0"><defs><clipPath id="1f2acf4c0f"><path d="M 375 37.5 L 375 337.5 C 375 358.210938 358.210938 375 337.5 375 L 37.5 375 C 16.789062 375 0 358.210938 0 337.5 L 0 37.5 C 0 16.789062 16.789062 0 37.5 0 L 337.5 0 C 347.445312 0 356.984375 3.949219 364.015625 10.984375 C 371.050781 18.015625 375 27.554688 375 37.5 Z M 375 37.5 " clip-rule="nonzero"/></clipPath><clipPath id="fdd2fa65da"><path d="M 0 0 L 375 0 L 375 375 L 0 375 Z M 0 0 " clip-rule="nonzero"/></clipPath><clipPath id="bcbb44e54b"><path d="M 375 37.5 L 375 337.5 C 375 358.210938 358.210938 375 337.5 375 L 37.5 375 C 16.789062 375 0 358.210938 0 337.5 L 0 37.5 C 0 16.789062 16.789062 0 37.5 0 L 337.5 0 C 347.445312 0 356.984375 3.949219 364.015625 10.984375 C 371.050781 18.015625 375 27.554688 375 37.5 Z M 375 37.5 " clip-rule="nonzero"/></clipPath><clipPath id="6e9c4522c0"><rect x="0" width="375" y="0" height="375"/></clipPath><clipPath id="8250d25771"><path d="M 155.964844 37.5 L 219.035156 37.5 L 219.035156 100.570312 L 155.964844 100.570312 Z M 155.964844 37.5 " clip-rule="nonzero"/></clipPath><clipPath id="2a0e03b297"><path d="M 187.5 37.5 C 170.082031 37.5 155.964844 51.617188 155.964844 69.035156 C 155.964844 86.449219 170.082031 100.570312 187.5 100.570312 C 204.917969 100.570312 219.035156 86.449219 219.035156 69.035156 C 219.035156 51.617188 204.917969 37.5 187.5 37.5 Z M 187.5 37.5 " clip-rule="nonzero"/></clipPath><clipPath id="3676e67dc6"><path d="M 0.964844 0.5 L 64.035156 0.5 L 64.035156 63.570312 L 0.964844 63.570312 Z M 0.964844 0.5 " clip-rule="nonzero"/></clipPath><clipPath id="0b76bb7dcb"><path d="M 32.5 0.5 C 15.082031 0.5 0.964844 14.617188 0.964844 32.035156 C 0.964844 49.449219 15.082031 63.570312 32.5 63.570312 C 49.917969 63.570312 64.035156 49.449219 64.035156 32.035156 C 64.035156 14.617188 49.917969 0.5 32.5 0.5 Z M 32.5 0.5 " clip-rule="nonzero"/></clipPath><clipPath id="38db545842"><rect x="0" width="65" y="0" height="64"/></clipPath></defs><rect x="-37.5" width="450" fill="#ffffff" y="-37.499999" height="449.999989" fill-opacity="1"/><rect x="-37.5" width="450" fill="#ffffff" y="-37.499999" height="449.999989" fill-opacity="1"/><g clip-path="url(#1f2acf4c0f)"><g transform="matrix(1, 0, 0, 1, 0, 0)"><g clip-path="url(#6e9c4522c0)"><g clip-path="url(#fdd2fa65da)"><g clip-path="url(#bcbb44e54b)"><rect x="-82.5" width="540" fill="#ffffff" height="539.999987" y="-82.499998" fill-opacity="1"/></g></g></g></g></g><path stroke-linecap="round" transform="matrix(0.75, -0.000000000000000093, 0.000000000000000093, 0.75, 55.749675, 121.658298)" fill="none" stroke-linejoin="miter" d="M 24.500435 24.502479 L 326.833788 24.502479 " stroke="#38b6ff" stroke-width="49" stroke-opacity="1" stroke-miterlimit="4"/><g clip-path="url(#8250d25771)"><g clip-path="url(#2a0e03b297)"><g transform="matrix(1, 0, 0, 1, 155, 37)"><g clip-path="url(#38db545842)"><g clip-path="url(#3676e67dc6)"><g clip-path="url(#0b76bb7dcb)"><path fill="#7ed957" d="M 0.964844 0.5 L 64.035156 0.5 L 64.035156 63.570312 L 0.964844 63.570312 Z M 0.964844 0.5 " fill-opacity="1" fill-rule="nonzero"/></g></g></g></g></g></g><path stroke-linecap="round" transform="matrix(0, 0.75, -0.75, 0, 206.248349, 129.631177)" fill="none" stroke-linejoin="miter" d="M 25.002182 24.997801 L 252.158447 24.997801 " stroke="#38b6ff" stroke-width="50" stroke-opacity="1" stroke-miterlimit="4"/></svg>